<?xml version="1.0" encoding="UTF-8" standalone="no"?>
<!DOCTYPE svg PUBLIC "-//W3C//DTD SVG 1.1//EN" "http://www.w3.org/Graphics/SVG/1.1/DTD/svg11.dtd">
<svg width="100%" height="100%" viewBox="0 0 88 97" version="1.1" xmlns="http://www.w3.org/2000/svg" xmlns:xlink="http://www.w3.org/1999/xlink" xml:space="preserve" xmlns:serif="http://www.serif.com/" style="fill-rule:evenodd;clip-rule:evenodd;stroke-linejoin:round;stroke-miterlimit:2;">
    <g transform="matrix(1,0,0,1,-406,-1038)">
        <g transform="matrix(4.16667,0,0,4.16667,0,0)">
            <g transform="matrix(1,0,0,1,117.701,252.264)">
                <path d="M0,14.867C-0.001,14.909 -0.005,14.948 -0.01,14.985L-2.852,14.985C-2.836,15.328 -2.754,15.587 -2.606,15.761C-2.459,15.935 -2.247,16.022 -1.97,16.022C-1.773,16.022 -1.613,15.983 -1.488,15.904C-1.362,15.824 -1.264,15.7 -1.19,15.534L-0.058,15.534C-0.173,15.993 -0.404,16.354 -0.752,16.614C-1.101,16.875 -1.524,17.005 -2.025,17.005C-2.641,17.005 -3.129,16.794 -3.488,16.371C-3.849,15.948 -4.028,15.375 -4.028,14.652C-4.028,13.94 -3.851,13.378 -3.496,12.968C-3.142,12.557 -2.656,12.351 -2.04,12.351C-1.389,12.351 -0.885,12.553 -0.53,12.957C-0.176,13.36 0.002,13.935 0.002,14.681C0.002,14.764 0.001,14.826 0,14.867M-4.386,11.877L-4.684,11.877C-4.854,11.877 -4.965,11.9 -5.019,11.945C-5.072,11.99 -5.099,12.076 -5.099,12.203L-5.099,12.506L-4.386,12.506L-4.386,13.324L-5.091,13.324L-5.091,16.855L-6.206,16.855L-6.206,13.324L-6.814,13.324L-6.814,12.506L-6.206,12.506L-6.206,12.104C-6.206,11.699 -6.104,11.401 -5.898,11.211C-5.694,11.02 -5.371,10.925 -4.93,10.925C-4.849,10.925 -4.764,10.927 -4.673,10.931C-4.583,10.935 -4.487,10.942 -4.386,10.953L-4.386,11.877ZM-7.161,16.855L-8.348,16.855C-8.387,16.781 -8.417,16.698 -8.438,16.607C-8.459,16.516 -8.471,16.418 -8.474,16.314C-8.616,16.541 -8.805,16.713 -9.036,16.832C-9.269,16.951 -9.538,17.01 -9.846,17.01C-10.257,17.01 -10.574,16.89 -10.797,16.65C-11.021,16.41 -11.132,16.069 -11.132,15.626C-11.132,15.216 -11.021,14.903 -10.797,14.686C-10.574,14.471 -10.206,14.323 -9.691,14.242C-9.574,14.224 -9.421,14.202 -9.23,14.179C-8.749,14.115 -8.509,13.972 -8.509,13.751C-8.509,13.575 -8.562,13.449 -8.669,13.373C-8.775,13.297 -8.954,13.259 -9.204,13.259C-9.433,13.259 -9.608,13.306 -9.73,13.399C-9.854,13.492 -9.914,13.625 -9.914,13.799L-9.914,13.863L-10.977,13.863L-10.977,13.783C-10.977,13.338 -10.823,12.988 -10.516,12.733C-10.208,12.479 -9.783,12.351 -9.241,12.351C-8.647,12.351 -8.192,12.457 -7.875,12.667C-7.559,12.878 -7.4,13.182 -7.4,13.579L-7.4,16.049C-7.4,16.231 -7.382,16.367 -7.346,16.456C-7.309,16.546 -7.247,16.614 -7.161,16.659L-7.161,16.855ZM-11.353,11.267C-11.353,11.046 -11.296,10.868 -11.184,10.736C-11.07,10.602 -10.92,10.536 -10.731,10.536C-10.568,10.536 -10.435,10.577 -10.331,10.661C-10.228,10.744 -10.166,10.859 -10.146,11.005L-10.421,11.005C-10.438,10.933 -10.472,10.878 -10.522,10.841C-10.573,10.803 -10.641,10.784 -10.723,10.784C-10.832,10.784 -10.917,10.827 -10.979,10.912C-11.042,10.997 -11.073,11.115 -11.073,11.266C-11.073,11.417 -11.041,11.535 -10.976,11.621C-10.91,11.706 -10.821,11.749 -10.708,11.749C-10.622,11.749 -10.551,11.722 -10.494,11.669C-10.437,11.616 -10.401,11.542 -10.388,11.449L-10.685,11.449L-10.685,11.211L-10.143,11.211L-10.143,11.964L-10.322,11.964L-10.355,11.8C-10.404,11.869 -10.459,11.921 -10.521,11.953C-10.583,11.986 -10.655,12.003 -10.738,12.003C-10.922,12.003 -11.069,11.935 -11.183,11.8C-11.296,11.665 -11.353,11.487 -11.353,11.267M-12.163,16.617C-12.503,16.876 -12.998,17.005 -13.646,17.005C-14.232,17.005 -14.691,16.87 -15.022,16.6C-15.354,16.331 -15.519,15.96 -15.519,15.487L-15.519,15.439L-14.387,15.439C-14.376,15.661 -14.298,15.826 -14.152,15.935C-14.006,16.043 -13.787,16.097 -13.496,16.097C-13.274,16.097 -13.104,16.059 -12.982,15.983C-12.86,15.907 -12.8,15.8 -12.8,15.66C-12.8,15.463 -13.026,15.314 -13.48,15.216C-13.665,15.176 -13.812,15.141 -13.921,15.111C-14.474,14.967 -14.857,14.797 -15.072,14.599C-15.287,14.402 -15.395,14.135 -15.395,13.799C-15.395,13.354 -15.237,13.001 -14.923,12.741C-14.608,12.481 -14.183,12.351 -13.646,12.351C-13.077,12.351 -12.631,12.481 -12.306,12.74C-11.981,12.998 -11.809,13.363 -11.788,13.833L-12.896,13.833C-12.903,13.648 -12.972,13.504 -13.101,13.402C-13.23,13.3 -13.409,13.249 -13.64,13.249C-13.856,13.249 -14.018,13.283 -14.123,13.349C-14.229,13.416 -14.282,13.517 -14.282,13.651C-14.282,13.825 -13.998,13.978 -13.432,14.112C-13.301,14.141 -13.198,14.166 -13.122,14.184C-12.557,14.32 -12.171,14.484 -11.964,14.676C-11.757,14.868 -11.653,15.138 -11.653,15.487C-11.653,15.981 -11.823,16.358 -12.163,16.617M-9.556,10.571L-9.246,10.571L-8.774,11.964L-9.057,11.964L-9.146,11.677L-9.651,11.677L-9.737,11.964L-10.021,11.964L-9.556,10.571ZM-8.243,11.373C-8.247,11.372 -8.249,11.371 -8.252,11.371C-8.258,11.369 -8.267,11.367 -8.279,11.365C-8.4,11.336 -8.487,11.304 -8.54,11.269C-8.586,11.237 -8.621,11.195 -8.646,11.142C-8.669,11.089 -8.682,11.026 -8.682,10.953C-8.682,10.818 -8.639,10.714 -8.552,10.642C-8.466,10.57 -8.341,10.534 -8.178,10.534C-8.025,10.534 -7.906,10.572 -7.82,10.649C-7.734,10.725 -7.688,10.834 -7.684,10.974L-7.942,10.974C-7.946,10.907 -7.971,10.855 -8.015,10.82C-8.059,10.784 -8.121,10.767 -8.202,10.767C-8.272,10.767 -8.326,10.782 -8.365,10.811C-8.403,10.84 -8.422,10.882 -8.422,10.936C-8.422,11.01 -8.348,11.065 -8.199,11.101C-8.159,11.112 -8.128,11.119 -8.105,11.125C-8.01,11.151 -7.942,11.171 -7.902,11.185C-7.862,11.2 -7.828,11.216 -7.799,11.234C-7.745,11.265 -7.705,11.307 -7.679,11.359C-7.652,11.411 -7.639,11.473 -7.639,11.546C-7.639,11.691 -7.685,11.803 -7.776,11.883C-7.868,11.963 -7.997,12.003 -8.164,12.003C-8.328,12.003 -8.457,11.962 -8.551,11.881C-8.645,11.799 -8.694,11.683 -8.701,11.534L-8.436,11.534C-8.426,11.61 -8.396,11.666 -8.348,11.703C-8.3,11.74 -8.229,11.758 -8.138,11.758C-8.06,11.758 -8.001,11.743 -7.961,11.714C-7.922,11.684 -7.902,11.64 -7.902,11.582C-7.902,11.498 -8.016,11.429 -8.243,11.373M-1.709,11.136L-1.052,11.136L-1.052,11.288L-1.293,11.288L-1.293,11.888L-1.468,11.888L-1.468,11.288L-1.709,11.288L-1.709,11.136ZM-0.978,11.136L-0.749,11.136L-0.521,11.675L-0.288,11.136L-0.062,11.136L-0.062,11.888L-0.231,11.888L-0.231,11.386L-0.45,11.888L-0.598,11.888L-0.808,11.378L-0.808,11.888L-0.978,11.888L-0.978,11.136ZM0.808,-1.778L0.804,-1.788C0.804,-2.446 0.268,-2.981 -0.39,-2.981C-0.69,-2.981 -0.979,-2.867 -1.2,-2.662L-1.222,-2.642L-20.065,16.044C-20.065,16.044 -20.045,16.064 -20.025,16.083C-20.118,16.257 -20.17,16.449 -20.17,16.645C-20.17,17.249 -19.723,17.743 -19.135,17.821L-19.135,17.848L-0.222,17.848L-0.222,17.819C0.36,17.737 0.804,17.243 0.804,16.645L0.803,16.627L0.808,-1.778Z" style="fill:rgb(170,32,41);fill-rule:nonzero;"/>
            </g>
            <g transform="matrix(1,0,0,1,108.302,263.707)">
                <path d="M0,-0.593L-0.182,0L0.182,0L0,-0.593Z" style="fill:rgb(170,32,41);fill-rule:nonzero;"/>
            </g>
            <g transform="matrix(1,0,0,1,108.196,268.085)">
                <path d="M0,-0.811C-0.2,-0.752 -0.341,-0.679 -0.42,-0.591C-0.5,-0.503 -0.539,-0.382 -0.539,-0.228C-0.539,-0.067 -0.488,0.06 -0.387,0.154C-0.285,0.249 -0.148,0.296 0.023,0.296C0.331,0.296 0.572,0.208 0.748,0.03C0.924,-0.147 1.012,-0.389 1.012,-0.695L1.012,-1.107C0.827,-1.019 0.614,-0.948 0.373,-0.895C0.132,-0.842 0.008,-0.813 0,-0.811" style="fill:rgb(170,32,41);fill-rule:nonzero;"/>
            </g>
            <g transform="matrix(1,0,0,1,115.685,266.486)">
                <path d="M0,-0.898C-0.248,-0.898 -0.443,-0.821 -0.586,-0.667C-0.729,-0.512 -0.812,-0.29 -0.835,0L0.842,0C0.831,-0.293 0.755,-0.516 0.612,-0.669C0.47,-0.822 0.266,-0.898 0,-0.898" style="fill:rgb(170,32,41);fill-rule:nonzero;"/>
            </g>
            <g transform="matrix(1,0,0,1,107.288,271.576)">
                <path d="M0,-0.193L0.347,-0.193C0.422,-0.193 0.478,-0.209 0.513,-0.242C0.549,-0.275 0.566,-0.326 0.566,-0.396C0.566,-0.462 0.549,-0.512 0.515,-0.547C0.48,-0.581 0.429,-0.598 0.36,-0.598L0,-0.598L0,-0.193ZM-0.296,0.669L-0.296,-0.862L0.4,-0.862C0.557,-0.862 0.673,-0.827 0.748,-0.755C0.824,-0.684 0.861,-0.575 0.861,-0.428C0.861,-0.335 0.844,-0.256 0.807,-0.194C0.77,-0.132 0.717,-0.089 0.648,-0.067C0.711,-0.043 0.755,-0.007 0.781,0.042C0.808,0.09 0.823,0.166 0.827,0.268L0.833,0.449L0.833,0.455C0.835,0.547 0.853,0.602 0.888,0.622L0.888,0.669L0.564,0.669C0.554,0.647 0.546,0.62 0.54,0.589C0.535,0.557 0.531,0.52 0.53,0.476L0.526,0.315C0.523,0.22 0.506,0.156 0.476,0.122C0.446,0.089 0.392,0.073 0.312,0.073L0,0.073L0,0.669L-0.296,0.669Z" style="fill:rgb(170,32,41);fill-rule:nonzero;"/>
            </g>
            <g transform="matrix(1,0,0,1,108.417,270.714)">
                <path d="M0,1.531L0,0L1.043,0L1.043,0.265L0.292,0.265L0.292,0.592L0.979,0.592L0.979,0.854L0.292,0.854L0.292,1.248L1.078,1.248L1.078,1.531L0,1.531Z" style="fill:rgb(170,32,41);fill-rule:nonzero;"/>
            </g>
            <g transform="matrix(1,0,0,1,110.753,270.897)">
                <path d="M0,1.167C-0.053,1.244 -0.113,1.3 -0.182,1.336C-0.249,1.372 -0.329,1.39 -0.421,1.39C-0.621,1.39 -0.784,1.315 -0.908,1.167C-1.032,1.019 -1.095,0.823 -1.095,0.582C-1.095,0.338 -1.032,0.143 -0.908,-0.003C-0.784,-0.149 -0.619,-0.223 -0.412,-0.223C-0.232,-0.223 -0.086,-0.177 0.028,-0.085C0.142,0.007 0.209,0.133 0.23,0.294L-0.071,0.294C-0.089,0.214 -0.126,0.153 -0.183,0.112C-0.238,0.07 -0.312,0.049 -0.402,0.049C-0.522,0.049 -0.616,0.096 -0.686,0.19C-0.754,0.284 -0.788,0.414 -0.788,0.58C-0.788,0.746 -0.752,0.876 -0.681,0.971C-0.609,1.064 -0.511,1.112 -0.387,1.112C-0.293,1.112 -0.215,1.083 -0.151,1.023C-0.089,0.964 -0.05,0.884 -0.035,0.781L-0.36,0.781L-0.36,0.52L0.234,0.52L0.234,1.348L0.036,1.348L0,1.167Z" style="fill:rgb(170,32,41);fill-rule:nonzero;"/>
            </g>
            <g transform="matrix(1,0,0,1,0,259.47)">
                <rect x="111.281" y="11.244" width="0.296" height="1.531" style="fill:rgb(170,32,41);"/>
            </g>
            <g transform="matrix(1,0,0,1,111.818,271.187)">
                <path d="M0,0.585L0.292,0.585C0.303,0.668 0.335,0.731 0.388,0.771C0.441,0.812 0.518,0.832 0.619,0.832C0.704,0.832 0.769,0.815 0.812,0.783C0.855,0.751 0.878,0.702 0.878,0.639C0.878,0.546 0.753,0.469 0.503,0.408C0.499,0.407 0.496,0.407 0.494,0.406C0.487,0.404 0.478,0.402 0.464,0.398C0.329,0.368 0.234,0.333 0.177,0.293C0.126,0.259 0.088,0.212 0.061,0.154C0.034,0.095 0.021,0.026 0.021,-0.054C0.021,-0.203 0.068,-0.317 0.163,-0.396C0.258,-0.476 0.396,-0.515 0.574,-0.515C0.742,-0.515 0.873,-0.473 0.968,-0.388C1.062,-0.304 1.112,-0.185 1.117,-0.031L0.834,-0.031C0.829,-0.105 0.802,-0.162 0.754,-0.2C0.706,-0.239 0.638,-0.258 0.548,-0.258C0.471,-0.258 0.411,-0.242 0.369,-0.21C0.327,-0.178 0.307,-0.132 0.307,-0.072C0.307,0.009 0.388,0.069 0.551,0.109C0.596,0.12 0.63,0.129 0.654,0.135C0.759,0.164 0.833,0.186 0.877,0.202C0.921,0.218 0.959,0.235 0.991,0.255C1.05,0.29 1.094,0.335 1.123,0.393C1.152,0.45 1.167,0.518 1.167,0.598C1.167,0.757 1.116,0.881 1.016,0.968C0.915,1.056 0.773,1.1 0.59,1.1C0.409,1.1 0.269,1.055 0.165,0.966C0.062,0.877 0.008,0.75 0,0.585" style="fill:rgb(170,32,41);fill-rule:nonzero;"/>
            </g>
            <g transform="matrix(1,0,0,1,113.513,270.714)">
                <path d="M0,1.531L0,0.273L-0.426,0.273L-0.426,0L0.718,0L0.718,0.273L0.295,0.273L0.295,1.531L0,1.531Z" style="fill:rgb(170,32,41);fill-rule:nonzero;"/>
            </g>
            <g transform="matrix(1,0,0,1,114.401,270.714)">
                <path d="M0,1.531L0,0L1.043,0L1.043,0.265L0.292,0.265L0.292,0.592L0.979,0.592L0.979,0.854L0.292,0.854L0.292,1.248L1.078,1.248L1.078,1.531L0,1.531Z" style="fill:rgb(170,32,41);fill-rule:nonzero;"/>
            </g>
            <g transform="matrix(1,0,0,1,116,271.576)">
                <path d="M0,-0.193L0.348,-0.193C0.423,-0.193 0.479,-0.209 0.514,-0.242C0.549,-0.275 0.566,-0.326 0.566,-0.396C0.566,-0.462 0.55,-0.512 0.515,-0.547C0.48,-0.581 0.429,-0.598 0.361,-0.598L0,-0.598L0,-0.193ZM-0.295,0.669L-0.295,-0.862L0.401,-0.862C0.558,-0.862 0.674,-0.827 0.749,-0.755C0.824,-0.684 0.862,-0.575 0.862,-0.428C0.862,-0.335 0.844,-0.256 0.807,-0.194C0.771,-0.132 0.718,-0.089 0.648,-0.067C0.711,-0.043 0.756,-0.007 0.781,0.042C0.809,0.09 0.823,0.166 0.827,0.268L0.833,0.449L0.833,0.455C0.835,0.547 0.854,0.602 0.889,0.622L0.889,0.669L0.564,0.669C0.555,0.647 0.546,0.62 0.541,0.589C0.535,0.557 0.532,0.52 0.53,0.476L0.526,0.315C0.523,0.22 0.507,0.156 0.477,0.122C0.446,0.089 0.392,0.073 0.313,0.073L0,0.073L0,0.669L-0.295,0.669Z" style="fill:rgb(170,32,41);fill-rule:nonzero;"/>
            </g>
        </g>
    </g>
</svg>
