<?xml version="1.0" encoding="UTF-8" standalone="no"?>
<!DOCTYPE svg PUBLIC "-//W3C//DTD SVG 1.1//EN" "http://www.w3.org/Graphics/SVG/1.1/DTD/svg11.dtd">
<svg width="100%" height="100%" viewBox="0 0 18 20" version="1.1" xmlns="http://www.w3.org/2000/svg" xmlns:xlink="http://www.w3.org/1999/xlink" xml:space="preserve" xmlns:serif="http://www.serif.com/" style="fill-rule:evenodd;clip-rule:evenodd;stroke-linejoin:round;stroke-miterlimit:2;">
    <g transform="matrix(1,0,0,1,-293,-565)">
        <g>
            <g transform="matrix(2.66667,0,0,2.66667,309.394,566.161)">
                <path d="M0,6.032L0,6.034L-5.468,6.034L-5.468,6.032L-5.5,6.031C-5.654,6.024 -5.774,5.899 -5.774,5.745C-5.774,5.69 -5.759,5.637 -5.729,5.591L-5.715,5.568L-5.716,5.567C-5.669,5.52 -0.176,0.074 -0.176,0.074C-0.124,0.025 -0.055,-0.002 0.018,-0.002C0.176,-0.002 0.304,0.127 0.304,0.284L0.304,0.288L0.305,0.287L0.305,5.739C0.304,5.74 0.304,5.742 0.304,5.743L0.304,5.744C0.304,5.897 0.185,6.023 0.032,6.031L0,6.032ZM0.372,0.287L0.371,0.284C0.371,0.09 0.213,-0.069 0.018,-0.069C-0.071,-0.069 -0.156,-0.035 -0.223,0.026L-0.229,0.032L-5.811,5.567L-5.799,5.578C-5.826,5.63 -5.842,5.686 -5.842,5.745C-5.842,5.924 -5.709,6.07 -5.535,6.093L-5.535,6.101L0.067,6.101L0.067,6.093C0.239,6.068 0.371,5.922 0.371,5.745L0.371,5.74L0.372,0.287Z" style="fill:rgb(3,4,4);fill-rule:nonzero;"/>
            </g>
            <g transform="matrix(2.66667,0,0,2.66667,310.203,566.93)">
                <path d="M0,5.456L0,5.455C0,5.454 0,5.451 0.001,5.451L0.001,-0.001L0,-0.001L0,-0.004C0,-0.162 -0.128,-0.29 -0.286,-0.29C-0.358,-0.29 -0.428,-0.263 -0.479,-0.215C-0.479,-0.215 -5.973,5.232 -6.02,5.279L-6.019,5.28L-6.033,5.302C-6.062,5.349 -6.078,5.402 -6.078,5.456C-6.078,5.61 -5.958,5.736 -5.804,5.742L-5.771,5.744L-5.771,5.746L-0.304,5.746L-0.304,5.744L-0.271,5.742C-0.119,5.734 0,5.609 0,5.456" style="fill:rgb(249,238,30);fill-rule:nonzero;"/>
            </g>
            <g transform="matrix(2.66667,0,0,2.66667,297.49,579.325)">
                <path d="M0,0.451L0.335,0.451C0.339,0.517 0.361,0.566 0.404,0.598C0.448,0.63 0.513,0.646 0.6,0.646C0.665,0.646 0.716,0.635 0.751,0.612C0.787,0.59 0.806,0.558 0.806,0.516C0.806,0.458 0.738,0.414 0.604,0.385C0.549,0.373 0.506,0.363 0.473,0.354C0.31,0.311 0.196,0.261 0.132,0.202C0.068,0.144 0.037,0.065 0.037,-0.035C0.037,-0.167 0.083,-0.271 0.177,-0.348C0.27,-0.425 0.396,-0.464 0.555,-0.464C0.724,-0.464 0.855,-0.425 0.951,-0.349C1.048,-0.272 1.099,-0.164 1.105,-0.025L0.777,-0.025C0.774,-0.08 0.755,-0.122 0.716,-0.153C0.678,-0.183 0.625,-0.198 0.557,-0.198C0.492,-0.198 0.444,-0.188 0.413,-0.168C0.382,-0.148 0.366,-0.118 0.366,-0.079C0.366,-0.028 0.45,0.018 0.618,0.058C0.657,0.067 0.687,0.074 0.71,0.079C0.877,0.119 0.991,0.168 1.053,0.225C1.114,0.282 1.146,0.362 1.146,0.465C1.146,0.612 1.095,0.723 0.994,0.8C0.894,0.876 0.747,0.915 0.555,0.915C0.381,0.915 0.245,0.875 0.146,0.795C0.049,0.715 0,0.605 0,0.465L0,0.451Z" style="fill:rgb(3,4,4);fill-rule:nonzero;"/>
            </g>
            <g transform="matrix(2.66667,0,0,2.66667,303.039,579.901)">
                <path d="M0,0.02C-0.055,0.046 -0.118,0.067 -0.189,0.083C-0.261,0.099 -0.298,0.107 -0.3,0.108C-0.359,0.125 -0.4,0.147 -0.424,0.173C-0.447,0.199 -0.459,0.235 -0.459,0.281C-0.459,0.328 -0.444,0.366 -0.414,0.394C-0.384,0.422 -0.344,0.436 -0.293,0.436C-0.202,0.436 -0.13,0.41 -0.078,0.357C-0.026,0.305 0,0.233 0,0.142L0,0.02ZM0.006,0.494C-0.036,0.561 -0.092,0.612 -0.161,0.647C-0.229,0.683 -0.31,0.7 -0.4,0.7C-0.522,0.7 -0.616,0.665 -0.683,0.594C-0.749,0.522 -0.781,0.421 -0.781,0.291C-0.781,0.169 -0.748,0.076 -0.683,0.012C-0.616,-0.052 -0.507,-0.096 -0.355,-0.12C-0.32,-0.125 -0.274,-0.131 -0.219,-0.139C-0.076,-0.158 -0.005,-0.2 -0.005,-0.265C-0.005,-0.317 -0.021,-0.355 -0.052,-0.377C-0.084,-0.399 -0.137,-0.411 -0.211,-0.411C-0.278,-0.411 -0.33,-0.397 -0.366,-0.37C-0.403,-0.342 -0.421,-0.302 -0.421,-0.251L-0.421,-0.232L-0.735,-0.232L-0.735,-0.256C-0.735,-0.388 -0.69,-0.491 -0.599,-0.567C-0.508,-0.642 -0.382,-0.68 -0.222,-0.68C-0.046,-0.68 0.089,-0.648 0.183,-0.586C0.276,-0.524 0.323,-0.434 0.323,-0.316L0.323,0.416C0.323,0.47 0.329,0.51 0.34,0.536C0.351,0.563 0.369,0.583 0.395,0.596L0.395,0.654L0.043,0.654C0.031,0.632 0.022,0.608 0.017,0.581C0.01,0.554 0.007,0.525 0.006,0.494" style="fill:rgb(3,4,4);fill-rule:nonzero;"/>
            </g>
            <g transform="matrix(2.66667,0,0,2.66667,304.847,576.96)">
                <path d="M0,1.757L0,0.711L-0.181,0.711L-0.181,0.469L0,0.469L0,0.35C0,0.23 0.03,0.141 0.091,0.085C0.151,0.028 0.247,0 0.378,0C0.401,0 0.427,0.001 0.454,0.002C0.48,0.003 0.509,0.006 0.539,0.008L0.539,0.282L0.451,0.282C0.4,0.282 0.367,0.289 0.352,0.302C0.336,0.316 0.328,0.341 0.328,0.379L0.328,0.469L0.539,0.469L0.539,0.711L0.33,0.711L0.33,1.757L0,1.757Z" style="fill:rgb(3,4,4);fill-rule:nonzero;"/>
            </g>
            <g transform="matrix(2.66667,0,0,2.66667,307.495,580.287)">
                <path d="M0,-0.271L0.497,-0.271C0.494,-0.357 0.471,-0.423 0.429,-0.469C0.387,-0.514 0.326,-0.537 0.247,-0.537C0.174,-0.537 0.116,-0.514 0.074,-0.468C0.032,-0.422 0.008,-0.356 0,-0.271M0.492,0.118L0.828,0.118C0.794,0.254 0.726,0.361 0.622,0.438C0.519,0.515 0.394,0.554 0.245,0.554C0.062,0.554 -0.082,0.491 -0.188,0.366C-0.295,0.241 -0.349,0.071 -0.349,-0.143C-0.349,-0.354 -0.296,-0.521 -0.19,-0.642C-0.086,-0.764 0.059,-0.825 0.24,-0.825C0.434,-0.825 0.583,-0.765 0.687,-0.646C0.793,-0.526 0.846,-0.355 0.846,-0.135C0.846,-0.11 0.846,-0.092 0.845,-0.08C0.845,-0.067 0.844,-0.056 0.842,-0.045L0,-0.045C0.005,0.057 0.029,0.134 0.073,0.185C0.116,0.237 0.18,0.263 0.262,0.263C0.319,0.263 0.367,0.251 0.404,0.228C0.441,0.204 0.471,0.167 0.492,0.118" style="fill:rgb(3,4,4);fill-rule:nonzero;"/>
            </g>
            <g transform="matrix(2.66667,0,0,2.66667,301.568,576.815)">
                <path d="M0,0.314C-0.015,0.335 -0.03,0.35 -0.049,0.359C-0.067,0.369 -0.089,0.374 -0.113,0.374C-0.168,0.374 -0.211,0.354 -0.245,0.314C-0.278,0.274 -0.295,0.222 -0.295,0.156C-0.295,0.091 -0.278,0.038 -0.245,-0.001C-0.212,-0.04 -0.167,-0.06 -0.111,-0.06C-0.062,-0.06 -0.023,-0.048 0.007,-0.023C0.038,0.002 0.057,0.035 0.062,0.079L-0.02,0.079C-0.024,0.057 -0.034,0.041 -0.05,0.03C-0.064,0.019 -0.084,0.013 -0.108,0.013C-0.141,0.013 -0.166,0.026 -0.185,0.051C-0.203,0.076 -0.213,0.111 -0.213,0.156C-0.213,0.201 -0.203,0.236 -0.184,0.261C-0.164,0.287 -0.138,0.299 -0.104,0.299C-0.079,0.299 -0.058,0.291 -0.041,0.275C-0.023,0.259 -0.014,0.238 -0.01,0.21L-0.098,0.21L-0.098,0.14L0.063,0.14L0.063,0.363L0.01,0.363L0,0.314Z" style="fill:rgb(3,4,4);fill-rule:nonzero;"/>
            </g>
            <g transform="matrix(2.66667,0,0,2.66667,302.323,577.561)">
                <path d="M0,-0.247L-0.054,-0.071L0.054,-0.071L0,-0.247ZM-0.046,-0.33L0.046,-0.33L0.186,0.083L0.102,0.083L0.075,-0.002L-0.074,-0.002L-0.101,0.083L-0.184,0.083L-0.046,-0.33Z" style="fill:rgb(3,4,4);fill-rule:nonzero;"/>
            </g>
            <g transform="matrix(2.66667,0,0,2.66667,302.875,577.024)">
                <path d="M0,0.157L0.078,0.157C0.081,0.179 0.09,0.196 0.104,0.207C0.119,0.218 0.14,0.223 0.167,0.223C0.189,0.223 0.207,0.219 0.219,0.21C0.23,0.201 0.236,0.189 0.236,0.171C0.236,0.146 0.203,0.126 0.136,0.109L0.133,0.109L0.125,0.107C0.089,0.098 0.063,0.089 0.048,0.078C0.034,0.069 0.023,0.056 0.017,0.041C0.01,0.025 0.006,0.007 0.006,-0.015C0.006,-0.055 0.019,-0.086 0.044,-0.107C0.069,-0.129 0.106,-0.139 0.155,-0.139C0.2,-0.139 0.235,-0.128 0.261,-0.105C0.286,-0.083 0.3,-0.051 0.301,-0.009L0.225,-0.009C0.224,-0.029 0.216,-0.044 0.203,-0.054C0.19,-0.065 0.172,-0.071 0.147,-0.071C0.127,-0.071 0.11,-0.066 0.1,-0.057C0.088,-0.049 0.083,-0.036 0.083,-0.02C0.083,0.002 0.104,0.018 0.148,0.029C0.16,0.032 0.17,0.034 0.177,0.036C0.205,0.043 0.225,0.05 0.236,0.054C0.248,0.058 0.259,0.063 0.268,0.068C0.283,0.077 0.295,0.09 0.303,0.105C0.311,0.12 0.314,0.139 0.314,0.16C0.314,0.203 0.301,0.237 0.273,0.261C0.247,0.284 0.208,0.296 0.159,0.296C0.11,0.296 0.072,0.283 0.045,0.26C0.017,0.236 0.002,0.201 0,0.157" style="fill:rgb(3,4,4);fill-rule:nonzero;"/>
            </g>
            <g transform="matrix(2.66667,0,0,2.66667,308.727,577.603)">
                <path d="M0,-0.133L0,0.045L-0.052,0.045L-0.052,-0.133L-0.123,-0.133L-0.123,-0.178L0.071,-0.178L0.071,-0.133L0,-0.133Z" style="fill:rgb(3,4,4);fill-rule:nonzero;"/>
            </g>
            <g transform="matrix(2.66667,0,0,2.66667,308.977,577.128)">
                <path d="M0,0.223L0,0L0.067,0L0.135,0.16L0.204,0L0.271,0L0.271,0.223L0.221,0.223L0.221,0.074L0.156,0.223L0.112,0.223L0.05,0.072L0.05,0.223L0,0.223Z" style="fill:rgb(3,4,4);fill-rule:nonzero;"/>
            </g>
            <g transform="matrix(2.66667,0,0,2.66667,301.524,583.584)">
                <path d="M0,-0.056L0.103,-0.056C0.125,-0.056 0.141,-0.061 0.151,-0.071C0.162,-0.08 0.167,-0.096 0.167,-0.116C0.167,-0.136 0.162,-0.151 0.152,-0.161C0.142,-0.171 0.127,-0.176 0.106,-0.176L0,-0.176L0,-0.056ZM-0.088,0.199L-0.088,-0.255L0.118,-0.255C0.165,-0.255 0.199,-0.244 0.222,-0.223C0.244,-0.202 0.255,-0.169 0.255,-0.126C0.255,-0.098 0.249,-0.075 0.238,-0.056C0.228,-0.038 0.212,-0.025 0.191,-0.018C0.21,-0.012 0.224,-0.001 0.231,0.013C0.239,0.027 0.243,0.05 0.244,0.08L0.246,0.134L0.246,0.136C0.247,0.163 0.252,0.179 0.263,0.185L0.263,0.199L0.167,0.199C0.164,0.193 0.161,0.185 0.16,0.175C0.158,0.166 0.157,0.155 0.156,0.142L0.155,0.094C0.154,0.066 0.149,0.047 0.141,0.037C0.132,0.027 0.115,0.023 0.092,0.023L0,0.023L0,0.199L-0.088,0.199Z" style="fill:rgb(3,4,4);fill-rule:nonzero;"/>
            </g>
            <g transform="matrix(2.66667,0,0,2.66667,302.414,582.905)">
                <path d="M0,0.454L0,0L0.309,0L0.309,0.079L0.087,0.079L0.087,0.176L0.29,0.176L0.29,0.253L0.087,0.253L0.087,0.37L0.319,0.37L0.319,0.454L0,0.454Z" style="fill:rgb(3,4,4);fill-rule:nonzero;"/>
            </g>
            <g transform="matrix(2.66667,0,0,2.66667,304.261,583.05)">
                <path d="M0,0.346C-0.016,0.368 -0.034,0.386 -0.054,0.396C-0.074,0.407 -0.098,0.412 -0.125,0.412C-0.185,0.412 -0.232,0.39 -0.27,0.346C-0.307,0.302 -0.324,0.244 -0.324,0.173C-0.324,0.1 -0.307,0.043 -0.27,-0.001C-0.232,-0.044 -0.184,-0.066 -0.122,-0.066C-0.069,-0.066 -0.025,-0.052 0.008,-0.025C0.042,0.002 0.062,0.04 0.068,0.087L-0.021,0.087C-0.026,0.064 -0.038,0.046 -0.055,0.034C-0.071,0.021 -0.093,0.015 -0.119,0.015C-0.155,0.015 -0.183,0.029 -0.203,0.056C-0.224,0.084 -0.233,0.123 -0.233,0.172C-0.233,0.221 -0.224,0.26 -0.202,0.288C-0.181,0.316 -0.151,0.33 -0.115,0.33C-0.087,0.33 -0.064,0.321 -0.045,0.304C-0.026,0.286 -0.015,0.262 -0.011,0.232L-0.107,0.232L-0.107,0.154L0.069,0.154L0.069,0.4L0.011,0.4L0,0.346Z" style="fill:rgb(3,4,4);fill-rule:nonzero;"/>
            </g>
            <g transform="matrix(2.66667,0,0,2.66667,0,-2048.34)">
                <rect x="114.254" y="986.717" width="0.087" height="0.454" style="fill:rgb(3,4,4);"/>
            </g>
            <g transform="matrix(2.66667,0,0,2.66667,305.102,583.278)">
                <path d="M0,0.174L0.086,0.174C0.09,0.199 0.099,0.217 0.114,0.229C0.131,0.241 0.153,0.247 0.183,0.247C0.208,0.247 0.228,0.242 0.24,0.233C0.253,0.223 0.26,0.209 0.26,0.19C0.26,0.162 0.223,0.139 0.148,0.121L0.146,0.121C0.145,0.12 0.142,0.12 0.137,0.119C0.098,0.11 0.069,0.099 0.052,0.088C0.037,0.077 0.025,0.064 0.018,0.046C0.01,0.029 0.006,0.008 0.006,-0.015C0.006,-0.059 0.021,-0.093 0.048,-0.117C0.076,-0.14 0.117,-0.152 0.17,-0.152C0.22,-0.152 0.259,-0.139 0.286,-0.115C0.314,-0.089 0.329,-0.054 0.331,-0.009L0.247,-0.009C0.245,-0.031 0.237,-0.047 0.224,-0.058C0.209,-0.07 0.188,-0.076 0.162,-0.076C0.14,-0.076 0.122,-0.071 0.109,-0.061C0.097,-0.052 0.091,-0.038 0.091,-0.021C0.091,0.003 0.115,0.021 0.163,0.033C0.176,0.036 0.187,0.039 0.193,0.041C0.225,0.049 0.247,0.056 0.26,0.06C0.272,0.065 0.284,0.07 0.294,0.076C0.311,0.087 0.324,0.1 0.332,0.117C0.341,0.134 0.346,0.154 0.346,0.178C0.346,0.225 0.331,0.261 0.301,0.287C0.271,0.314 0.229,0.326 0.175,0.326C0.121,0.326 0.079,0.313 0.049,0.287C0.019,0.26 0.002,0.223 0,0.174" style="fill:rgb(3,4,4);fill-rule:nonzero;"/>
            </g>
            <g transform="matrix(2.66667,0,0,2.66667,306.441,582.905)">
                <path d="M0,0.454L0,0.081L-0.126,0.081L-0.126,0L0.212,0L0.212,0.081L0.087,0.081L0.087,0.454L0,0.454Z" style="fill:rgb(3,4,4);fill-rule:nonzero;"/>
            </g>
            <g transform="matrix(2.66667,0,0,2.66667,307.141,582.905)">
                <path d="M0,0.454L0,0L0.31,0L0.31,0.079L0.087,0.079L0.087,0.176L0.29,0.176L0.29,0.253L0.087,0.253L0.087,0.37L0.319,0.37L0.319,0.454L0,0.454Z" style="fill:rgb(3,4,4);fill-rule:nonzero;"/>
            </g>
            <g transform="matrix(2.66667,0,0,2.66667,308.404,583.584)">
                <path d="M0,-0.056L0.104,-0.056C0.125,-0.056 0.142,-0.061 0.152,-0.071C0.163,-0.08 0.168,-0.096 0.168,-0.116C0.168,-0.136 0.163,-0.151 0.152,-0.161C0.143,-0.171 0.127,-0.176 0.107,-0.176L0,-0.176L0,-0.056ZM-0.087,0.199L-0.087,-0.255L0.119,-0.255C0.165,-0.255 0.2,-0.244 0.222,-0.223C0.244,-0.202 0.256,-0.169 0.256,-0.126C0.256,-0.098 0.25,-0.075 0.239,-0.056C0.229,-0.038 0.213,-0.025 0.192,-0.018C0.211,-0.012 0.224,-0.001 0.231,0.013C0.239,0.027 0.244,0.05 0.245,0.08L0.247,0.134L0.247,0.136C0.247,0.163 0.253,0.179 0.264,0.185L0.264,0.199L0.167,0.199C0.164,0.193 0.162,0.185 0.16,0.175C0.159,0.166 0.158,0.155 0.157,0.142L0.156,0.094C0.155,0.066 0.15,0.047 0.142,0.037C0.133,0.027 0.116,0.023 0.093,0.023L0,0.023L0,0.199L-0.087,0.199Z" style="fill:rgb(3,4,4);fill-rule:nonzero;"/>
            </g>
        </g>
    </g>
</svg>
