<?xml version="1.0" encoding="utf-8"?>
<!-- Generator: Adobe Illustrator 23.1.1, SVG Export Plug-In . SVG Version: 6.00 Build 0)  -->
<svg version="1.1" id="Layer_1" xmlns="http://www.w3.org/2000/svg" xmlns:xlink="http://www.w3.org/1999/xlink" x="0px" y="0px"
	 viewBox="0 0 60 60" style="enable-background:new 0 0 60 60;" xml:space="preserve">
<style type="text/css">
	.st0{fill:#A92029;}
	.st1{fill:#CD2A35;}
	.st2{fill:#FFFFFF;}
</style>
<g>
	<g>
		<polygon class="st1" points="13.73,45.37 19.38,46.89 21.58,42.39 29.52,40.85 30.76,36.57 14.83,40.27 12.54,41.45 		"/>
		<path class="st1" d="M50.18,28.65l-4.63-0.26l-1.08-5.19l-0.04-0.08c-3.26-6.01-9.89-10.05-16.5-10.05
			c-10.1,0-18.33,7.75-18.33,17.27c0,1.06,0.19,2.09,0.38,3.08c0.2,1.05,0.38,2.05,0.3,2.93l-1.77,2.1l2.09,2.74l4.04-1.69
			l22.51-5.03l13.96-1.55l1.69-2.64L50.18,28.65z M28.62,16.9c-6.42,0-12.23,2.87-15.74,7.38c2.63-5.41,8.44-9.17,15.17-9.17
			c4.9,0,9.82,2.44,13.08,6.31C37.57,18.59,33.06,16.9,28.62,16.9z"/>
	</g>
</g>
</svg>
