<?xml version="1.0" encoding="utf-8"?>
<!-- Generator: Adobe Illustrator 23.1.1, SVG Export Plug-In . SVG Version: 6.00 Build 0)  -->
<svg version="1.1" id="Layer_1" xmlns="http://www.w3.org/2000/svg" xmlns:xlink="http://www.w3.org/1999/xlink" x="0px" y="0px"
	 viewBox="0 0 60 60" style="enable-background:new 0 0 60 60;" xml:space="preserve">
<style type="text/css">
	.st0{fill:#A92029;}
	.st1{fill:#CD2A35;}
	.st2{fill:#FFFFFF;}
</style>
<g>
	<g>
		<path class="st1" d="M48.42,13.88L48.42,13.88c0.22-0.29,0.37-0.64,0.37-1.04c0-0.91-0.74-1.65-1.65-1.65
			c-0.54,0-1.02,0.26-1.32,0.67l0,0L28.17,28.1l-8.06-4.16c-0.04-0.02-0.09-0.05-0.13-0.07l-0.04-0.02l-0.02-0.01
			c-0.07-0.03-0.14-0.06-0.21-0.08l-0.03-0.01v0c-0.22-0.07-0.46-0.11-0.7-0.11c-1.27,0-2.3,1.03-2.3,2.3
			c0,0.71,0.33,1.35,0.84,1.78l0,0l0,0c0,0,0,0,0,0l8.67,7.24c0.17,0.17,0.35,0.32,0.54,0.45l0,0l0,0c0.57,0.39,1.27,0.62,2.01,0.62
			c0.99,0,1.88-0.4,2.53-1.05l0.01,0.01l0.11-0.14c0.1-0.11,0.19-0.22,0.27-0.33L48.42,13.88z"/>
		<path class="st1" d="M44.41,22.9c0.22,1.02,0.34,2.08,0.34,3.17c0,8.38-6.82,15.21-15.21,15.21c-7.85,0-14.33-5.98-15.12-13.62
			c-0.2-0.54-0.34-1.11-0.34-1.71c0-0.69,0.15-1.35,0.41-1.95c1.02-7.41,7.37-13.13,15.05-13.13c3.69,0,7.08,1.32,9.72,3.52
			l3.35-3.09c-3.49-3.09-8.05-4.98-13.07-4.98C18.66,6.32,9.8,15.18,9.8,26.07c0,8.6,5.53,15.91,13.22,18.62v10.96l6.53-4.6
			l6.53,4.6V44.69c7.69-2.71,13.22-10.02,13.22-18.62c0-2.62-0.52-5.11-1.45-7.4L44.41,22.9z"/>
	</g>
</g>
</svg>
