<?xml version="1.0" encoding="utf-8"?>
<!-- Generator: Adobe Illustrator 23.1.1, SVG Export Plug-In . SVG Version: 6.00 Build 0)  -->
<svg version="1.1" id="Layer_1" xmlns="http://www.w3.org/2000/svg" xmlns:xlink="http://www.w3.org/1999/xlink" x="0px" y="0px"
	 viewBox="0 0 108 60" style="enable-background:new 0 0 108 60;" xml:space="preserve">
<style type="text/css">
	.st0{fill:#A92029;}
	.st1{fill:#CD2A35;}
	.st2{fill:#FFFFFF;}
</style>
<g id="S2gbw4_2_">
	<g>
		<path class="st0" d="M18.92,29.3c1.51,0,3.03,0,4.55,0c0.08,0.3,0.19,0.58,0.36,0.83c0.34,0.48,0.79,0.82,1.38,0.89
			c0.47,0.05,0.95,0.02,1.35-0.27c0.21-0.15,0.33-0.36,0.36-0.63c0.05-0.56-0.25-0.91-0.7-1.16c-0.55-0.31-1.16-0.48-1.76-0.64
			c-0.62-0.16-1.24-0.32-1.85-0.51c-0.63-0.2-1.23-0.5-1.76-0.89c-0.69-0.51-1.13-1.18-1.27-2.03c-0.04-0.25-0.06-0.51-0.08-0.77
			c-0.04-0.54,0.04-1.05,0.22-1.56c0.17-0.46,0.42-0.86,0.75-1.22c0.27-0.31,0.59-0.56,0.93-0.78c0.46-0.29,0.95-0.5,1.47-0.64
			c0.31-0.08,0.62-0.16,0.94-0.22c0.22-0.04,0.45-0.07,0.68-0.08c0.32-0.02,0.63-0.05,0.95-0.05c0.25,0,0.49,0.02,0.74,0.05
			c0.22,0.02,0.45,0.04,0.67,0.08c0.92,0.15,1.76,0.49,2.52,1.04c0.51,0.37,0.92,0.84,1.23,1.39c0.24,0.42,0.41,0.86,0.51,1.33
			c0.04,0.15,0.06,0.31,0.09,0.47c-1.52,0-3.03,0-4.54,0c-0.07-0.19-0.12-0.39-0.2-0.58c-0.17-0.39-0.43-0.7-0.85-0.83
			c-0.38-0.11-0.76-0.1-1.09,0.13c-0.44,0.31-0.53,0.86-0.26,1.3c0.16,0.26,0.4,0.43,0.66,0.57c0.69,0.37,1.45,0.57,2.2,0.76
			c0.81,0.2,1.61,0.44,2.35,0.83c0.41,0.22,0.79,0.49,1.11,0.84c0.42,0.47,0.73,1.01,0.86,1.62c0.05,0.22,0.06,0.44,0.09,0.67
			c0.02,0.18,0.03,0.36,0.02,0.54c-0.02,0.71-0.19,1.38-0.6,1.98c-0.44,0.65-1.04,1.11-1.75,1.44c-0.51,0.24-1.04,0.4-1.59,0.51
			c-0.45,0.09-0.9,0.17-1.36,0.17c-0.47,0.01-0.94,0.04-1.41,0.02c-0.67-0.03-1.33-0.12-1.98-0.3c-0.8-0.21-1.55-0.53-2.21-1.03
			c-0.57-0.42-1-0.96-1.29-1.61c-0.2-0.44-0.34-0.91-0.41-1.4c-0.01-0.08-0.03-0.15-0.05-0.22C18.92,29.34,18.92,29.32,18.92,29.3z"
			/>
		<path class="st0" d="M90.08,10.49c0,1.28,0,2.57,0,3.88c0.93-0.93,1.84-1.84,2.74-2.74c0.37,0.37,0.73,0.73,1.09,1.09
			c-0.9,0.9-1.81,1.81-2.72,2.72c0.01,0.01,0.01,0.02,0.02,0.04c1.28,0,2.57,0,3.85,0c0,0.51,0,1.01,0,1.52c-1.28,0-2.57,0-3.87,0
			c0.92,0.92,1.83,1.83,2.74,2.74c-0.38,0.38-0.74,0.74-1.12,1.12c-0.91-0.91-1.81-1.81-2.73-2.73c0,1.29,0,2.57,0,3.86
			c-0.51,0-1.01,0-1.52,0c0-1.28,0-2.56,0-3.85c-0.92,0.92-1.83,1.83-2.73,2.73c-0.38-0.38-0.75-0.75-1.12-1.12
			c0.9-0.9,1.81-1.81,2.74-2.74c-1.31,0-2.59,0-3.88,0c0-0.51,0-1.01,0-1.52c1.28,0,2.57,0,3.85,0c-0.92-0.92-1.83-1.83-2.73-2.73
			c0.38-0.38,0.74-0.74,1.12-1.12c0.9,0.9,1.81,1.81,2.74,2.74c0-1.31,0-2.6,0-3.88C89.07,10.49,89.58,10.49,90.08,10.49z"/>
		<path class="st0" d="M46.4,33.55c-1.55,0-3.08,0-4.63,0c0-0.05,0-0.1,0-0.15c0-2.48,0.01-4.96-0.01-7.44
			c-0.01-0.66-0.03-1.34-0.27-1.98c-0.17-0.47-0.43-0.87-0.89-1.1c-0.21-0.11-0.44-0.14-0.68-0.17c-0.36-0.04-0.7,0.02-1.03,0.17
			c-0.4,0.19-0.65,0.53-0.82,0.93c-0.17,0.41-0.26,0.83-0.33,1.27c-0.03,0.23-0.05,0.46-0.05,0.69c-0.01,2.56-0.02,5.12-0.03,7.68
			c0,0.03,0,0.06,0,0.1c-1.53,0-3.06,0-4.6,0c0-4.53,0-9.06,0-13.6c1.53,0,3.06,0,4.59,0c0,0.69,0,1.38,0,2.07
			c0.01,0,0.02,0,0.02,0.01c0.04-0.08,0.07-0.16,0.11-0.24c0.18-0.36,0.4-0.68,0.67-0.98c0.56-0.62,1.27-0.97,2.07-1.13
			c0.25-0.05,0.5-0.07,0.76-0.08c0.33-0.01,0.66-0.03,0.99,0c0.59,0.05,1.18,0.17,1.72,0.42c0.5,0.23,0.93,0.57,1.3,0.97
			c0.3,0.33,0.53,0.7,0.71,1.13c0.09-0.16,0.17-0.31,0.25-0.45c0.36-0.64,0.85-1.14,1.49-1.49c0.54-0.3,1.12-0.47,1.72-0.54
			c0.24-0.03,0.49-0.04,0.74-0.05c0.21-0.01,0.42-0.01,0.63,0c0.38,0.02,0.75,0.07,1.11,0.18c0.52,0.15,1,0.36,1.44,0.67
			c0.78,0.55,1.29,1.29,1.51,2.21c0.07,0.28,0.1,0.58,0.13,0.87c0.03,0.3,0.05,0.61,0.05,0.91c0.01,1.8,0.02,3.59,0.03,5.39
			c0,1.19,0,2.38,0,3.57c0,0.05,0,0.1,0,0.16c-1.54,0-3.07,0-4.61,0c0-0.05,0-0.1,0-0.15c0-2.14,0.01-4.29,0-6.43
			c0-0.64-0.03-1.29-0.08-1.93c-0.03-0.47-0.13-0.93-0.34-1.36c-0.27-0.54-0.69-0.86-1.28-0.95c-0.53-0.08-1.04,0-1.47,0.33
			c-0.26,0.2-0.42,0.48-0.54,0.78c-0.17,0.42-0.27,0.86-0.33,1.3c-0.03,0.26-0.05,0.53-0.05,0.8c0,2.48,0,4.96,0,7.44
			C46.4,33.44,46.4,33.49,46.4,33.55z"/>
		<path class="st0" d="M64.83,25.17c0-0.5,0.04-1-0.13-1.48c-0.17-0.48-0.51-0.79-1-0.92c-0.4-0.11-0.81-0.1-1.2,0.03
			c-0.44,0.15-0.75,0.46-0.91,0.89c-0.1,0.27-0.15,0.57-0.22,0.88c-1.41,0-2.86,0-4.33,0c0.02-0.26,0.03-0.53,0.07-0.8
			c0.07-0.44,0.2-0.86,0.4-1.25c0.18-0.34,0.41-0.66,0.66-0.96c0.52-0.6,1.16-1.02,1.88-1.35c0.54-0.25,1.11-0.4,1.69-0.51
			c0.49-0.09,0.97-0.14,1.47-0.13c0.31,0.01,0.62-0.02,0.93,0.01c0.4,0.03,0.8,0.08,1.2,0.15c0.36,0.06,0.71,0.15,1.05,0.26
			c0.55,0.18,1.05,0.45,1.5,0.83c0.54,0.46,0.94,1.02,1.16,1.69c0.12,0.36,0.2,0.73,0.28,1.1c0.04,0.21,0.04,0.44,0.06,0.66
			c0.11,2.12,0.03,4.25,0.05,6.37c0,0.34,0.02,0.69,0.05,1.03c0.03,0.43,0.08,0.85,0.13,1.28c0.02,0.2,0.05,0.39,0.08,0.6
			c-1.51,0-3.01,0-4.52,0c-0.09-0.58-0.18-1.16-0.27-1.74c-0.04,0.3-0.13,0.58-0.29,0.82c-0.18,0.27-0.43,0.46-0.71,0.61
			c-0.57,0.3-1.18,0.48-1.82,0.59c-0.51,0.09-1.02,0.11-1.53,0.07c-0.6-0.04-1.18-0.17-1.72-0.42c-0.37-0.17-0.71-0.39-1.01-0.67
			c-0.36-0.33-0.65-0.71-0.86-1.14c-0.2-0.4-0.33-0.82-0.35-1.27c-0.01-0.3-0.04-0.61-0.02-0.91c0.05-0.72,0.28-1.38,0.71-1.96
			c0.53-0.71,1.24-1.19,2.04-1.55c0.66-0.3,1.35-0.49,2.07-0.6c0.31-0.05,0.62-0.09,0.94-0.13c0.8-0.1,1.6-0.07,2.4-0.08
			C64.79,25.18,64.8,25.17,64.83,25.17z M64.84,28.44c0-0.23,0-0.4,0-0.56c0-0.07-0.02-0.1-0.09-0.1c-0.25,0-0.51,0.01-0.76,0
			c-0.44-0.01-0.88,0.06-1.3,0.18c-0.31,0.09-0.62,0.21-0.87,0.43c-0.27,0.24-0.42,0.53-0.48,0.89c-0.08,0.58,0.12,1.04,0.64,1.31
			c0.41,0.21,0.86,0.24,1.3,0.14c0.71-0.16,1.19-0.61,1.44-1.3C64.84,29.09,64.84,28.73,64.84,28.44z"/>
		<path class="st0" d="M83.04,23.94c-0.06,0-0.11,0-0.15,0c-1.41,0-2.82,0-4.23,0c-0.11,0-0.15-0.02-0.18-0.14
			c-0.09-0.38-0.24-0.73-0.53-1c-0.21-0.19-0.45-0.3-0.73-0.33c-0.32-0.04-0.59,0.03-0.86,0.2c-0.24,0.14-0.43,0.6-0.38,0.9
			c0.08,0.45,0.37,0.7,0.72,0.91c0.71,0.41,1.49,0.61,2.28,0.81c0.78,0.19,1.54,0.42,2.26,0.78c0.5,0.25,0.94,0.58,1.3,1
			c0.41,0.48,0.68,1.04,0.8,1.67c0.08,0.43,0.09,0.86,0.07,1.29c-0.05,0.77-0.31,1.46-0.82,2.06c-0.4,0.47-0.89,0.83-1.44,1.09
			c-0.56,0.27-1.15,0.47-1.77,0.56c-0.41,0.06-0.83,0.12-1.25,0.15c-0.46,0.03-0.92,0.05-1.37,0.02c-0.78-0.04-1.56-0.15-2.31-0.39
			c-0.59-0.19-1.14-0.43-1.66-0.77c-0.59-0.39-1.06-0.89-1.4-1.51c-0.28-0.5-0.45-1.03-0.54-1.6c-0.02-0.11-0.04-0.21-0.06-0.34
			c0.06,0,0.1,0,0.15,0c1.42,0,2.84,0,4.27,0c0.09,0,0.14,0.02,0.16,0.12c0.11,0.39,0.3,0.74,0.59,1.03
			c0.3,0.29,0.64,0.49,1.06,0.55c0.43,0.06,0.85,0.03,1.26-0.16c0.57-0.27,0.65-0.94,0.36-1.39c-0.2-0.31-0.49-0.49-0.81-0.63
			c-0.71-0.31-1.46-0.52-2.22-0.69c-0.57-0.13-1.13-0.29-1.67-0.53c-0.48-0.21-0.94-0.46-1.35-0.8c-0.39-0.32-0.71-0.7-0.91-1.17
			c-0.14-0.32-0.24-0.64-0.27-0.99c-0.02-0.29-0.06-0.58-0.05-0.88c0.03-0.81,0.27-1.55,0.77-2.2c0.44-0.57,1-0.99,1.64-1.3
			c0.54-0.26,1.12-0.44,1.72-0.54c0.34-0.06,0.68-0.09,1.02-0.13c0.21-0.02,0.43-0.02,0.64-0.03c0.2,0,0.41-0.02,0.61,0
			c0.43,0.04,0.85,0.08,1.27,0.16c0.55,0.1,1.06,0.31,1.55,0.57c0.51,0.27,0.97,0.62,1.35,1.06c0.54,0.62,0.89,1.34,1.05,2.15
			c0.02,0.11,0.05,0.23,0.07,0.34C83.05,23.87,83.04,23.9,83.04,23.94z"/>
		<path class="st0" d="M22.66,43.98c-1.91,0-3.51-1.54-3.46-3.56c0.02-0.96,0.4-1.79,1.11-2.45c0.74-0.69,1.64-0.98,2.64-0.9
			c1.68,0.12,3.18,1.5,3.18,3.45C26.13,42.45,24.6,43.98,22.66,43.98z M24.68,39.61c-0.23-0.23-0.43-0.43-0.64-0.64
			c-0.69,0.69-1.39,1.39-2.11,2.11c-0.26-0.26-0.51-0.51-0.75-0.76c-0.21,0.21-0.42,0.42-0.61,0.61c0.46,0.46,0.93,0.93,1.35,1.36
			C22.84,41.4,23.77,40.5,24.68,39.61z"/>
		<path class="st0" d="M34.08,41.35c0.28-1.18,0.57-2.35,0.86-3.53c0.46,0,0.92,0,1.39,0c-0.06,0.21-0.12,0.41-0.17,0.61
			c-0.22,0.79-0.45,1.59-0.67,2.38c-0.18,0.62-0.36,1.24-0.54,1.86c-0.05,0.16-0.09,0.32-0.14,0.47c-0.01,0.04-0.07,0.09-0.1,0.09
			c-0.39,0.01-0.78,0.01-1.16,0c-0.03,0-0.09-0.05-0.1-0.09c-0.17-0.55-0.32-1.11-0.49-1.66c-0.18-0.61-0.36-1.22-0.55-1.86
			c-0.03,0.08-0.06,0.14-0.08,0.21c-0.15,0.51-0.3,1.03-0.45,1.54c-0.16,0.57-0.33,1.14-0.49,1.71c-0.03,0.12-0.07,0.17-0.21,0.16
			c-0.39-0.01-0.78,0-1.18,0c-0.51-1.8-1.02-3.6-1.54-5.42c0.15,0,0.28,0,0.42,0c0.3,0,0.61,0,0.91,0c0.08,0,0.11,0.01,0.13,0.1
			c0.19,0.79,0.38,1.59,0.57,2.38c0.08,0.34,0.16,0.68,0.24,1.02c0,0.01,0.01,0.02,0.03,0.04c0.17-0.63,0.33-1.24,0.49-1.86
			c0.14-0.54,0.29-1.08,0.44-1.62c0.01-0.03,0.06-0.07,0.08-0.07c0.44,0,0.88,0,1.32,0c0.32,1.18,0.64,2.36,0.96,3.54
			C34.06,41.35,34.07,41.35,34.08,41.35z"/>
		<path class="st0" d="M40.79,43.38c-0.73,0.01-1.35-0.16-1.9-0.56c-0.31-0.22-0.55-0.5-0.74-0.83c-0.19-0.33-0.31-0.68-0.35-1.05
			c-0.06-0.55-0.02-1.08,0.19-1.6c0.14-0.35,0.34-0.66,0.62-0.91c0.39-0.37,0.86-0.6,1.39-0.69c0.29-0.05,0.6-0.08,0.89-0.07
			c0.41,0.01,0.82,0.09,1.2,0.27c0.3,0.13,0.57,0.3,0.8,0.53c0.38,0.37,0.61,0.81,0.72,1.32c0.16,0.77,0.09,1.51-0.29,2.2
			c-0.3,0.55-0.76,0.93-1.33,1.17C41.58,43.31,41.16,43.39,40.79,43.38z M40.72,38.86c-0.1,0.01-0.2,0.02-0.3,0.04
			c-0.55,0.11-0.92,0.44-1.12,0.95c-0.13,0.33-0.13,0.67-0.08,1.01c0.07,0.43,0.27,0.77,0.62,1.03c0.36,0.27,0.77,0.33,1.19,0.25
			c0.38-0.07,0.68-0.27,0.9-0.59c0.3-0.43,0.38-0.9,0.28-1.42C42.08,39.38,41.48,38.85,40.72,38.86z"/>
		<path class="st0" d="M47.21,43.22c-0.45,0-0.88,0-1.32,0c0-1.8,0-3.6,0-5.41c0.04,0,0.09,0,0.13,0c0.72,0,1.44-0.01,2.16,0
			c0.47,0.01,0.92,0.12,1.31,0.41c0.26,0.2,0.46,0.47,0.52,0.8c0.06,0.33,0.07,0.66-0.05,0.99c-0.14,0.4-0.43,0.67-0.82,0.84
			c-0.06,0.03-0.12,0.05-0.2,0.08c0.47,0.77,0.93,1.52,1.4,2.3c-0.2,0-0.38,0-0.56,0c-0.31,0-0.62,0-0.92,0
			c-0.04,0-0.1-0.03-0.12-0.06c-0.38-0.68-0.75-1.37-1.13-2.06c-0.13,0-0.26,0-0.41,0C47.21,41.81,47.21,42.51,47.21,43.22z
			 M47.19,40.11c0.24,0,0.46,0.01,0.69,0c0.16-0.01,0.32-0.03,0.46-0.08c0.29-0.11,0.42-0.28,0.39-0.67
			c-0.01-0.19-0.23-0.42-0.47-0.44c-0.35-0.02-0.71-0.01-1.07-0.01C47.19,39.3,47.19,39.7,47.19,40.11z"/>
		<path class="st0" d="M57.64,43.22c-0.59,0-1.14,0-1.69,0c-0.03,0-0.07-0.02-0.09-0.05c-0.28-0.34-0.56-0.69-0.84-1.04
			c-0.27-0.33-0.54-0.66-0.81-0.99c-0.1-0.12-0.19-0.25-0.31-0.39c0,0.84,0,1.64,0,2.46c-0.43,0-0.86,0-1.29,0c0-1.8,0-3.59,0-5.4
			c0.42,0,0.84,0,1.28,0c0,0.71,0,1.43,0,2.15c0.01,0,0.02,0.01,0.03,0.01c0.11-0.11,0.21-0.23,0.32-0.34
			c0.15-0.17,0.3-0.35,0.45-0.52c0.29-0.34,0.59-0.67,0.88-1.01c0.07-0.08,0.14-0.16,0.21-0.23c0.03-0.03,0.08-0.06,0.11-0.06
			c0.53,0,1.06,0,1.61,0c-0.01,0.03-0.02,0.05-0.03,0.07c-0.18,0.19-0.37,0.38-0.55,0.57c-0.41,0.44-0.82,0.87-1.23,1.31
			c-0.17,0.18-0.33,0.36-0.5,0.55C56,41.28,56.81,42.24,57.64,43.22z"/>
		<path class="st0" d="M67.38,37.81c0.42,0,0.82,0,1.23,0c0.03,0,0.09,0.03,0.1,0.06c0.31,0.75,0.61,1.5,0.93,2.25
			c0.28,0.69,0.57,1.37,0.86,2.05c0.14,0.34,0.28,0.68,0.43,1.04c-0.5,0-0.99,0-1.49,0c-0.13-0.34-0.27-0.68-0.41-1.03
			c-0.36,0-0.72,0-1.08,0c-0.3,0-0.6,0-0.9,0c-0.08,0-0.11,0.03-0.14,0.1c-0.1,0.29-0.21,0.57-0.33,0.85
			c-0.01,0.03-0.06,0.08-0.1,0.08c-0.45,0.01-0.9,0-1.38,0C65.86,41.41,66.62,39.61,67.38,37.81z M67.34,41.09c0.44,0,0.86,0,1.31,0
			c-0.21-0.59-0.42-1.17-0.63-1.74c-0.01,0-0.02,0-0.03,0C67.77,39.93,67.56,40.5,67.34,41.09z"/>
		<path class="st0" d="M78.95,37.81c1.26,0,2.5,0,3.76,0c0,0.37,0,0.73,0,1.1c-0.82,0-1.64,0-2.47,0c0,0.34,0,0.67,0,1.01
			c0.75,0,1.49,0,2.24,0c0,0.36,0,0.7,0,1.06c-0.74,0-1.49,0-2.24,0c0,0.37,0,0.72,0,1.09c0.83,0,1.66,0,2.49,0
			c0,0.38,0,0.75,0,1.13c-1.26,0-2.51,0-3.78,0C78.95,41.42,78.95,39.62,78.95,37.81z"/>
		<path class="st0" d="M60.2,41.74c0.22,0.24,0.52,0.43,0.88,0.5c0.27,0.05,0.53,0.04,0.77-0.11c0.22-0.14,0.27-0.54,0.1-0.72
			c-0.15-0.16-0.33-0.25-0.53-0.32c-0.35-0.13-0.71-0.23-1.04-0.38c-0.38-0.17-0.67-0.46-0.77-0.88c-0.17-0.7,0-1.43,0.73-1.85
			c0.36-0.2,0.74-0.28,1.15-0.31c0.5-0.03,0.97,0.07,1.41,0.29c0.19,0.09,0.37,0.23,0.56,0.36c-0.1,0.11-0.17,0.2-0.25,0.28
			c-0.18,0.19-0.35,0.37-0.53,0.56c-0.05,0.06-0.08,0.08-0.16,0c-0.3-0.29-0.65-0.44-1.08-0.37c-0.19,0.03-0.35,0.1-0.47,0.26
			c-0.15,0.21-0.07,0.52,0.12,0.6c0.27,0.12,0.55,0.23,0.82,0.33c0.31,0.12,0.63,0.21,0.9,0.42c0.33,0.26,0.55,0.56,0.58,1
			c0.03,0.42-0.04,0.81-0.28,1.17c-0.25,0.37-0.61,0.58-1.03,0.7c-0.31,0.09-0.63,0.12-0.95,0.1c-0.57-0.04-1.11-0.2-1.59-0.54
			c-0.09-0.07-0.17-0.15-0.29-0.26C59.57,42.3,59.88,42.02,60.2,41.74z"/>
		<path class="st0" d="M76.54,37.82c0,0.36,0,0.71,0,1.06c0,0.02,0,0.04,0,0.07c-0.76,0-1.51,0-2.26,0c0,0.36,0,0.72,0,1.09
			c0.69,0,1.39,0,2.09,0c0,0.37,0,0.74,0,1.11c-0.69,0-1.39,0-2.09,0c0,0.7,0,1.38,0,2.07c-0.44,0-0.87,0-1.31,0c0-1.8,0-3.59,0-5.4
			C74.14,37.82,75.33,37.82,76.54,37.82z"/>
	</g>
</g>
</svg>
