<?xml version="1.0" encoding="utf-8"?>
<!-- Generator: Adobe Illustrator 23.1.1, SVG Export Plug-In . SVG Version: 6.00 Build 0)  -->
<svg version="1.1" id="Layer_1" xmlns="http://www.w3.org/2000/svg" xmlns:xlink="http://www.w3.org/1999/xlink" x="0px" y="0px"
	 viewBox="0 0 60 60" style="enable-background:new 0 0 60 60;" xml:space="preserve">
<style type="text/css">
	.st0{fill:#A92029;}
	.st1{fill:#CD2A35;}
	.st2{fill:#FFFFFF;}
</style>
<g>
	<path class="st1" d="M34.94,8.22c-0.41,0-0.72,0.14-1,0.41l-9.83,10.28c-0.5,0.54-0.5,1.4,0.05,1.9c0.5,0.45,1.22,0.5,1.72,0.14
		v8.56c0,0.77,0.59,1.36,1.36,1.36h15.4c0.77,0,1.36-0.59,1.36-1.36v-8.51c0.23,0.18,0.5,0.23,0.77,0.23c0.32,0,0.68-0.14,0.95-0.36
		c0.54-0.5,0.54-1.36,0.05-1.9l-4.03-4.21v-3.35c0-0.77-0.59-1.4-1.36-1.4c-0.77,0-1.36,0.59-1.36,1.36v0.5l-3.08-3.21
		C35.67,8.36,35.35,8.22,34.94,8.22z M8.27,31.68c-0.77,0-1.36,0.59-1.36,1.36c0,0.77,0.59,1.36,1.36,1.36h6.48
		c0.05,0,0.09,0.05,0.09,0.05v0.32v11.05v0.45H8.23c-0.77,0-1.36,0.59-1.36,1.36c0,0.77,0.59,1.36,1.36,1.36h6.57
		c1.04,0,1.95-0.59,2.4-1.4l11.59,3.62c0.14,0.05,1.95,0.54,4.12,0.54c1.18,0,2.4-0.14,3.53-0.59c2.4-0.95,11.41-5.71,15.17-7.7
		c1.27-0.68,2.26-2.31,1.58-3.99c-0.36-1-1.54-2.58-4.48-1.72h-0.05l-5.25,1.77c-0.72,0.23-1.09,1-0.86,1.72s1,1.09,1.72,0.86
		l5.21-1.77c1.09-0.32,1.18-0.05,1.27,0.18c0.09,0.23-0.27,0.5-0.32,0.5c-6.02,3.17-13.09,6.84-14.94,7.61
		c-2.35,0.95-5.84-0.05-5.84-0.05l-8.92-2.76v-9.65h1c1.72,0,6.57,0.54,8.33,3.08c0.27,0.36,0.68,0.59,1.13,0.59h6.61
		c0.59,0,1.13,0.41,1.18,0.95v0.14v0.09v0.09c0,0.05,0,0.09-0.05,0.09c0,0.05,0,0.04-0.05,0.09c-0.18,0.36-0.54,0.63-1,0.63h-9.64
		c-0.77,0-1.36,0.59-1.36,1.36c0,0.77,0.59,1.36,1.36,1.36h9.6c1.31,0,2.49-0.68,3.17-1.72v-0.05v-0.05
		c0.09-0.14,0.18-0.32,0.27-0.5v-0.05c0.09-0.18,0.14-0.32,0.18-0.5c0-0.05,0.05-0.09,0.05-0.14c0.05-0.18,0.05-0.32,0.09-0.5v-0.09
		v-0.23v-0.14v-0.18c-0.18-1.95-1.86-3.44-3.9-3.44h-5.89c-3.17-3.62-9.83-3.67-10.1-3.67h-4.39c-0.41-1-1.4-1.72-2.58-1.72H8.27z"
		/>
</g>
</svg>
