<?xml version="1.0" encoding="utf-8"?>
<!-- Generator: Adobe Illustrator 23.1.1, SVG Export Plug-In . SVG Version: 6.00 Build 0)  -->
<svg version="1.1" id="Layer_1" xmlns="http://www.w3.org/2000/svg" xmlns:xlink="http://www.w3.org/1999/xlink" x="0px" y="0px"
	 viewBox="0 0 82 60" style="enable-background:new 0 0 82 60;" xml:space="preserve">
<style type="text/css">
	.st0{fill:#A92029;}
	.st1{fill:#CD2A35;}
	.st2{fill:#FFFFFF;}
</style>
<g>
	<g>
		<path class="st0" d="M59,5.74l-0.01-0.02c0-1.53-1.24-2.77-2.77-2.77c-0.7,0-1.37,0.26-1.88,0.74l-0.05,0.05L10.53,47.13
			c0,0,0.05,0.05,0.09,0.09c-0.22,0.4-0.34,0.85-0.34,1.3c0,1.4,1.04,2.55,2.4,2.73c0,0.02,0,0.06,0,0.06h43.92c0,0,0-0.04,0-0.07
			c1.35-0.19,2.38-1.34,2.38-2.73l0-0.04L59,5.74z M54.86,35.73h0.53l0.53,1.25l0.54-1.25h0.53v1.75h-0.39v-1.17l-0.51,1.17h-0.34
			l-0.49-1.19v1.19h-0.39V35.73z M53.16,35.73h1.53v0.35h-0.56v1.39h-0.41v-1.39h-0.56V35.73z M37.98,36.28c-0.01,0-0.01,0-0.02,0
			c-0.01,0-0.03-0.01-0.06-0.02c-0.28-0.07-0.48-0.14-0.6-0.22c-0.11-0.07-0.19-0.17-0.24-0.3c-0.06-0.12-0.08-0.27-0.08-0.44
			c0-0.31,0.1-0.56,0.3-0.72c0.2-0.17,0.49-0.25,0.87-0.25c0.35,0,0.63,0.09,0.83,0.27c0.2,0.18,0.31,0.43,0.32,0.75h-0.6
			c-0.01-0.16-0.07-0.28-0.17-0.36c-0.1-0.08-0.25-0.12-0.43-0.12c-0.16,0-0.29,0.03-0.38,0.1c-0.09,0.07-0.13,0.16-0.13,0.29
			c0,0.17,0.17,0.3,0.52,0.38c0.09,0.02,0.17,0.04,0.22,0.05c0.22,0.06,0.38,0.11,0.47,0.14c0.09,0.03,0.17,0.07,0.24,0.11
			c0.12,0.07,0.22,0.17,0.28,0.29c0.06,0.12,0.09,0.27,0.09,0.43c0,0.34-0.11,0.6-0.32,0.78c-0.21,0.19-0.51,0.28-0.9,0.28
			c-0.38,0-0.68-0.09-0.9-0.28c-0.22-0.19-0.33-0.46-0.35-0.81h0.62c0.02,0.18,0.09,0.31,0.2,0.39c0.11,0.09,0.28,0.13,0.49,0.13
			c0.18,0,0.32-0.03,0.41-0.1c0.09-0.07,0.14-0.17,0.14-0.3C38.77,36.57,38.51,36.41,37.98,36.28z M34.93,34.42h0.72l1.09,3.23
			h-0.65l-0.21-0.67h-1.18l-0.2,0.67h-0.66L34.93,34.42z M28.88,48.46c-0.79,0.6-1.94,0.9-3.44,0.9c-1.36,0-2.43-0.31-3.2-0.94
			c-0.77-0.63-1.15-1.49-1.15-2.59v-0.11h2.63c0.02,0.52,0.21,0.9,0.54,1.15c0.34,0.25,0.85,0.38,1.52,0.38
			c0.51,0,0.91-0.09,1.19-0.27c0.28-0.18,0.42-0.43,0.42-0.75c0-0.46-0.53-0.8-1.58-1.03c-0.43-0.09-0.77-0.17-1.02-0.24
			c-1.28-0.33-2.17-0.73-2.67-1.19c-0.5-0.46-0.75-1.08-0.75-1.86c0-1.03,0.36-1.85,1.09-2.46c0.73-0.6,1.72-0.91,2.97-0.91
			c1.32,0,2.36,0.3,3.11,0.9c0.75,0.6,1.16,1.45,1.2,2.54h-2.57c-0.02-0.43-0.18-0.76-0.48-1c-0.3-0.24-0.72-0.36-1.25-0.36
			c-0.5,0-0.88,0.08-1.12,0.23c-0.25,0.16-0.37,0.39-0.37,0.7c0,0.4,0.66,0.76,1.97,1.07c0.3,0.07,0.54,0.12,0.72,0.17
			c1.31,0.32,2.21,0.7,2.69,1.14c0.48,0.45,0.72,1.07,0.72,1.88C30.06,46.98,29.67,47.86,28.88,48.46z M30.76,36.03
			c0-0.52,0.13-0.93,0.39-1.24c0.26-0.31,0.61-0.46,1.05-0.46c0.38,0,0.69,0.1,0.93,0.29c0.24,0.19,0.38,0.46,0.43,0.8h-0.64
			c-0.04-0.17-0.12-0.29-0.24-0.38c-0.12-0.09-0.27-0.13-0.46-0.13c-0.25,0-0.45,0.1-0.6,0.3c-0.14,0.2-0.22,0.47-0.22,0.82
			c0,0.35,0.08,0.63,0.23,0.82c0.15,0.2,0.36,0.3,0.62,0.3c0.2,0,0.36-0.06,0.5-0.19c0.13-0.12,0.22-0.29,0.25-0.51h-0.69V35.9h1.26
			v1.75h-0.42l-0.08-0.38c-0.11,0.16-0.24,0.28-0.38,0.36c-0.14,0.08-0.31,0.11-0.51,0.11c-0.42,0-0.77-0.16-1.03-0.47
			C30.89,36.96,30.76,36.55,30.76,36.03z M40.5,49.01h-2.76c-0.09-0.17-0.16-0.37-0.21-0.58c-0.05-0.21-0.08-0.44-0.08-0.68
			c-0.33,0.53-0.77,0.93-1.31,1.2c-0.54,0.28-1.17,0.41-1.88,0.41c-0.96,0-1.69-0.28-2.21-0.84c-0.52-0.56-0.78-1.35-0.78-2.38
			c0-0.95,0.26-1.68,0.78-2.18c0.52-0.5,1.37-0.85,2.57-1.03c0.27-0.04,0.63-0.09,1.07-0.15c1.12-0.15,1.68-0.48,1.68-0.99
			c0-0.41-0.12-0.7-0.37-0.88c-0.25-0.18-0.66-0.26-1.24-0.26c-0.53,0-0.94,0.11-1.22,0.33c-0.28,0.22-0.43,0.53-0.43,0.93v0.15
			h-2.47v-0.19c0-1.03,0.36-1.85,1.07-2.44c0.71-0.59,1.7-0.89,2.96-0.89c1.38,0,2.44,0.24,3.17,0.73c0.74,0.49,1.1,1.19,1.1,2.12
			v5.74c0,0.42,0.04,0.74,0.13,0.95c0.09,0.21,0.23,0.36,0.43,0.47V49.01z M46.94,37.45h-0.69c-0.39,0-0.65,0.05-0.78,0.16
			c-0.12,0.1-0.19,0.3-0.19,0.6v0.7h1.66v1.9H45.3v8.2h-2.59v-8.2H41.3v-1.9h1.41v-0.93c0-0.94,0.24-1.63,0.71-2.08
			c0.48-0.44,1.23-0.66,2.25-0.66c0.19,0,0.39,0,0.6,0.01c0.21,0.01,0.43,0.03,0.67,0.05V37.45z M57.13,44.39
			c0,0.1-0.01,0.19-0.02,0.27h-6.6c0.04,0.8,0.23,1.4,0.57,1.8c0.34,0.4,0.84,0.61,1.48,0.61c0.45,0,0.83-0.09,1.12-0.28
			c0.29-0.18,0.52-0.47,0.69-0.86h2.63c-0.27,1.07-0.8,1.9-1.61,2.51c-0.81,0.61-1.79,0.91-2.96,0.91c-1.43,0-2.56-0.49-3.4-1.47
			c-0.84-0.98-1.25-2.31-1.25-3.99c0-1.65,0.41-2.96,1.24-3.91c0.82-0.95,1.95-1.43,3.38-1.43c1.51,0,2.68,0.47,3.51,1.41
			c0.82,0.94,1.24,2.27,1.24,4C57.13,44.15,57.13,44.3,57.13,44.39z"/>
		<polygon class="st0" points="35.3,35.06 34.88,36.44 35.72,36.44 		"/>
		<path class="st0" d="M35.05,44.73c-0.47,0.14-0.79,0.31-0.98,0.51c-0.18,0.2-0.28,0.49-0.28,0.85c0,0.37,0.12,0.67,0.35,0.89
			c0.24,0.22,0.55,0.33,0.95,0.33c0.71,0,1.27-0.21,1.68-0.62c0.41-0.41,0.61-0.97,0.61-1.69v-0.96c-0.43,0.2-0.92,0.37-1.48,0.49
			C35.36,44.65,35.07,44.72,35.05,44.73z"/>
		<path class="st0" d="M52.44,40.81c-0.58,0-1.03,0.18-1.36,0.54c-0.33,0.36-0.52,0.87-0.58,1.55h3.89c-0.02-0.68-0.2-1.2-0.53-1.55
			C53.53,40.99,53.06,40.81,52.44,40.81z"/>
	</g>
	<path class="st0" d="M32.26,56.27v-3.56h1.62c0.36,0,0.63,0.08,0.81,0.25c0.18,0.17,0.26,0.42,0.26,0.76c0,0.22-0.04,0.4-0.13,0.54
		c-0.09,0.14-0.21,0.24-0.37,0.3c0.15,0.05,0.25,0.14,0.31,0.25c0.06,0.11,0.1,0.29,0.11,0.53l0.01,0.42c0,0,0,0.01,0,0.01
		c0,0.21,0.05,0.34,0.13,0.39v0.11h-0.75c-0.02-0.05-0.04-0.11-0.06-0.19c-0.01-0.07-0.02-0.16-0.02-0.26l-0.01-0.37
		c-0.01-0.22-0.05-0.37-0.12-0.45c-0.07-0.08-0.2-0.12-0.38-0.12h-0.73v1.38H32.26z M32.94,54.27h0.81c0.17,0,0.3-0.04,0.39-0.11
		c0.08-0.08,0.12-0.19,0.12-0.36c0-0.15-0.04-0.27-0.12-0.35c-0.08-0.08-0.2-0.12-0.36-0.12h-0.84V54.27z"/>
	<path class="st0" d="M35.57,56.27v-3.56h2.42v0.62h-1.74v0.76h1.59v0.61h-1.59v0.92h1.82v0.66H35.57z"/>
	<path class="st0" d="M40.99,55.85c-0.12,0.18-0.26,0.31-0.42,0.39c-0.16,0.08-0.34,0.13-0.56,0.13c-0.47,0-0.84-0.17-1.13-0.52
		c-0.29-0.35-0.43-0.8-0.43-1.36c0-0.57,0.14-1.02,0.43-1.36c0.29-0.34,0.67-0.51,1.15-0.51c0.42,0,0.76,0.11,1.02,0.32
		c0.26,0.21,0.42,0.51,0.47,0.88h-0.7c-0.04-0.19-0.13-0.33-0.26-0.42c-0.13-0.1-0.3-0.14-0.51-0.14c-0.28,0-0.5,0.11-0.66,0.33
		c-0.16,0.22-0.24,0.52-0.24,0.9c0,0.39,0.08,0.69,0.25,0.91c0.17,0.22,0.39,0.33,0.68,0.33c0.22,0,0.4-0.07,0.55-0.21
		c0.15-0.14,0.24-0.32,0.27-0.56h-0.76v-0.61h1.38v1.92h-0.46L40.99,55.85z"/>
	<path class="st0" d="M42.22,56.27v-3.56h0.69v3.56H42.22z"/>
	<path class="st0" d="M43.46,55.17h0.68c0.03,0.19,0.1,0.34,0.22,0.43c0.12,0.09,0.3,0.14,0.54,0.14c0.2,0,0.35-0.04,0.45-0.11
		c0.1-0.08,0.15-0.19,0.15-0.34c0-0.22-0.29-0.39-0.87-0.54c-0.01,0-0.01,0-0.02,0c-0.02,0-0.04-0.01-0.07-0.02
		c-0.31-0.07-0.53-0.15-0.67-0.24c-0.12-0.08-0.21-0.19-0.27-0.32c-0.06-0.14-0.09-0.3-0.09-0.48c0-0.35,0.11-0.61,0.33-0.8
		c0.22-0.18,0.54-0.28,0.95-0.28c0.39,0,0.69,0.1,0.91,0.29c0.22,0.2,0.34,0.47,0.35,0.83H45.4c-0.01-0.17-0.07-0.3-0.19-0.39
		c-0.11-0.09-0.27-0.13-0.48-0.13c-0.18,0-0.32,0.04-0.42,0.11c-0.1,0.07-0.15,0.18-0.15,0.32c0,0.19,0.19,0.33,0.57,0.42
		c0.1,0.03,0.18,0.05,0.24,0.06c0.24,0.07,0.42,0.12,0.52,0.15c0.1,0.04,0.19,0.08,0.27,0.12c0.14,0.08,0.24,0.19,0.31,0.32
		c0.07,0.13,0.1,0.29,0.1,0.48c0,0.37-0.12,0.66-0.35,0.86c-0.23,0.2-0.56,0.31-0.99,0.31c-0.42,0-0.75-0.1-0.99-0.31
		C43.61,55.85,43.48,55.56,43.46,55.17z"/>
	<path class="st0" d="M47.4,56.27v-2.92h-0.99v-0.63h2.66v0.63h-0.98v2.92H47.4z"/>
	<path class="st0" d="M49.46,56.27v-3.56h2.42v0.62h-1.74v0.76h1.59v0.61h-1.59v0.92h1.82v0.66H49.46z"/>
	<path class="st0" d="M52.49,56.27v-3.56h1.62c0.36,0,0.63,0.08,0.81,0.25c0.17,0.17,0.26,0.42,0.26,0.76c0,0.22-0.04,0.4-0.13,0.54
		c-0.09,0.14-0.21,0.24-0.37,0.3c0.14,0.05,0.25,0.14,0.31,0.25c0.06,0.11,0.1,0.29,0.11,0.53l0.01,0.42c0,0,0,0.01,0,0.01
		c0,0.21,0.05,0.34,0.13,0.39v0.11h-0.75c-0.02-0.05-0.04-0.11-0.06-0.19c-0.01-0.07-0.02-0.16-0.02-0.26l-0.01-0.37
		c-0.01-0.22-0.05-0.37-0.12-0.45c-0.07-0.08-0.2-0.12-0.38-0.12h-0.73v1.38H52.49z M53.18,54.27h0.81c0.17,0,0.3-0.04,0.39-0.11
		c0.08-0.08,0.12-0.19,0.12-0.36c0-0.15-0.04-0.27-0.12-0.35c-0.08-0.08-0.2-0.12-0.36-0.12h-0.84V54.27z"/>
</g>
</svg>
