<?xml version="1.0" encoding="utf-8"?>
<!-- Generator: Adobe Illustrator 23.1.1, SVG Export Plug-In . SVG Version: 6.00 Build 0)  -->
<svg version="1.1" id="Layer_1" xmlns="http://www.w3.org/2000/svg" xmlns:xlink="http://www.w3.org/1999/xlink" x="0px" y="0px"
	 viewBox="0 0 60 60" style="enable-background:new 0 0 60 60;" xml:space="preserve">
<style type="text/css">
	.st0{fill:#A92029;}
	.st1{fill:#CD2A35;}
	.st2{fill:#FFFFFF;}
</style>
<path class="st1" d="M47.96,16.85c-0.27-0.22-0.65-0.17-0.86,0.1l-2.66,3.38l-8.71-6.85l2.66-3.38c0.22-0.27,0.17-0.65-0.1-0.86
	L34.41,6.2c-0.27-0.22-0.65-0.17-0.86,0.1L7.67,39.21c-0.22,0.27-0.17,0.65,0.1,0.86l3.87,3.04c0.27,0.22,0.65,0.17,0.86-0.1
	l2.66-3.38l8.71,6.85l-2.66,3.38c-0.22,0.27-0.17,0.65,0.1,0.86l3.87,3.04c0.27,0.22,0.65,0.17,0.86-0.1l25.87-32.89
	c0.22-0.27,0.17-0.65-0.1-0.86L47.96,16.85z M27.69,41.63l-8.71-6.85l4.56-5.8l8.71,6.85L27.69,41.63z M36.05,30.98l-8.7-6.84
	l4.56-5.8l8.71,6.85L36.05,30.98z"/>
</svg>
