<?xml version="1.0" encoding="utf-8"?>
<!-- Generator: Adobe Illustrator 23.1.1, SVG Export Plug-In . SVG Version: 6.00 Build 0)  -->
<svg version="1.1" id="Layer_1" xmlns="http://www.w3.org/2000/svg" xmlns:xlink="http://www.w3.org/1999/xlink" x="0px" y="0px"
	 viewBox="0 0 155 60" style="enable-background:new 0 0 155 60;" xml:space="preserve">
<style type="text/css">
	.st0{fill:#A92029;}
	.st1{fill:#CD2A35;}
	.st2{fill:#FFFFFF;}
</style>
<g>
	<path class="st2" d="M8.09,40.45c-1.14,0-2.14-0.12-2.98-0.36v-4.21c0.87,0.22,1.66,0.33,2.38,0.33c1.11,0,1.9-0.34,2.38-1.04
		c0.48-0.69,0.72-1.77,0.72-3.24V9.6h5.05V31.9c0,2.78-0.64,4.9-1.91,6.36C12.46,39.72,10.58,40.45,8.09,40.45z"/>
	<path class="st2" d="M35.57,33.43l-1.73-5.67h-8.69l-1.73,5.67h-5.45L26.39,9.5h6.18l8.45,23.94H35.57z M32.63,23.52
		c-1.6-5.14-2.5-8.05-2.7-8.72s-0.34-1.21-0.43-1.6c-0.36,1.39-1.39,4.83-3.08,10.32H32.63z"/>
	<path class="st2" d="M52.8,13.46c-1.9,0-3.37,0.72-4.42,2.14c-1.04,1.43-1.57,3.42-1.57,5.98c0,5.32,1.99,7.97,5.98,7.97
		c1.67,0,3.7-0.42,6.08-1.26v4.24c-1.96,0.82-4.14,1.22-6.56,1.22c-3.47,0-6.12-1.05-7.96-3.15c-1.84-2.1-2.76-5.12-2.76-9.06
		c0-2.48,0.45-4.65,1.35-6.51s2.2-3.29,3.89-4.29c1.69-0.99,3.67-1.49,5.94-1.49c2.32,0,4.64,0.56,6.98,1.68l-1.63,4.11
		c-0.89-0.42-1.79-0.79-2.69-1.11S53.67,13.46,52.8,13.46z"/>
	<path class="st2" d="M82.46,33.43h-5.74l-6.24-10.04l-2.14,1.53v8.51h-5.05V9.6h5.05V20.5l1.99-2.8l6.46-8.1h5.61l-8.32,10.55
		L82.46,33.43z"/>
	<path class="st2" d="M99.54,26.82c0,2.15-0.78,3.85-2.32,5.09c-1.55,1.24-3.7,1.86-6.47,1.86c-2.54,0-4.79-0.48-6.75-1.43v-4.7
		c1.61,0.72,2.97,1.22,4.08,1.52c1.12,0.29,2.13,0.44,3.06,0.44c1.11,0,1.96-0.21,2.55-0.64c0.59-0.42,0.89-1.05,0.89-1.89
		c0-0.47-0.13-0.88-0.39-1.25c-0.26-0.36-0.65-0.71-1.15-1.05c-0.51-0.34-1.54-0.87-3.09-1.61c-1.46-0.69-2.55-1.34-3.28-1.97
		c-0.73-0.63-1.31-1.36-1.74-2.2c-0.44-0.84-0.65-1.82-0.65-2.93c0-2.11,0.72-3.77,2.14-4.97c1.43-1.21,3.41-1.81,5.93-1.81
		c1.24,0,2.42,0.15,3.55,0.44c1.12,0.29,2.3,0.71,3.53,1.24l-1.63,3.93c-1.27-0.52-2.32-0.89-3.15-1.09
		c-0.83-0.21-1.65-0.31-2.45-0.31c-0.96,0-1.69,0.22-2.2,0.67c-0.51,0.45-0.77,1.03-0.77,1.74c0,0.45,0.1,0.83,0.31,1.17
		c0.21,0.33,0.53,0.65,0.99,0.96c0.45,0.31,1.52,0.87,3.2,1.67c2.23,1.07,3.76,2.13,4.58,3.2S99.54,25.26,99.54,26.82z"/>
	<path class="st2" d="M124.83,21.48c0,3.95-0.98,6.98-2.94,9.1c-1.96,2.12-4.76,3.18-8.41,3.18c-3.65,0-6.46-1.06-8.41-3.18
		c-1.96-2.12-2.93-5.16-2.93-9.13c0-3.97,0.98-7,2.94-9.09c1.96-2.09,4.77-3.14,8.44-3.14c3.66,0,6.47,1.06,8.4,3.16
		C123.85,14.49,124.83,17.53,124.83,21.48z M107.43,21.48c0,2.66,0.51,4.67,1.52,6.02c1.01,1.35,2.52,2.02,4.53,2.02
		c4.03,0,6.05-2.68,6.05-8.04c0-5.37-2.01-8.06-6.02-8.06c-2.01,0-3.53,0.68-4.55,2.03C107.94,16.81,107.43,18.82,107.43,21.48z"/>
	<path class="st2" d="M148.91,33.43h-6.42L132.12,15.4h-0.15c0.21,3.19,0.31,5.46,0.31,6.82v11.22h-4.52V9.6h6.37l10.35,17.85h0.12
		c-0.16-3.1-0.25-5.29-0.25-6.57V9.6h4.55V33.43z"/>
</g>
<g>
	<path class="st2" d="M9.52,46.11c0,0.62-0.21,1.09-0.63,1.42c-0.42,0.33-1.02,0.5-1.8,0.5H6.37v2.39H5.66v-6.08h1.58
		C8.76,44.33,9.52,44.92,9.52,46.11z M6.37,47.41H7c0.63,0,1.08-0.1,1.36-0.3c0.28-0.2,0.42-0.53,0.42-0.97c0-0.4-0.13-0.7-0.39-0.9
		s-0.67-0.3-1.23-0.3H6.37V47.41z"/>
	<path class="st2" d="M11.2,50.41h-0.69v-6.47h0.69V50.41z"/>
	<path class="st2" d="M13.14,45.86v2.96c0,0.37,0.08,0.65,0.25,0.83c0.17,0.18,0.43,0.27,0.79,0.27c0.48,0,0.83-0.13,1.05-0.39
		c0.22-0.26,0.33-0.69,0.33-1.28v-2.39h0.69v4.56h-0.57l-0.1-0.61h-0.04c-0.14,0.22-0.34,0.4-0.59,0.52
		c-0.25,0.12-0.54,0.18-0.86,0.18c-0.55,0-0.97-0.13-1.25-0.4c-0.28-0.26-0.41-0.68-0.41-1.26v-2.98H13.14z"/>
	<path class="st2" d="M23.36,50.41v-2.96c0-0.36-0.08-0.63-0.23-0.82c-0.15-0.18-0.4-0.27-0.72-0.27c-0.43,0-0.75,0.12-0.95,0.37
		c-0.2,0.25-0.31,0.63-0.31,1.14v2.54h-0.69v-2.96c0-0.36-0.08-0.63-0.23-0.82c-0.16-0.18-0.4-0.27-0.73-0.27
		c-0.43,0-0.75,0.13-0.95,0.39c-0.2,0.26-0.3,0.68-0.3,1.27v2.39h-0.69v-4.56h0.56l0.11,0.62h0.03c0.13-0.22,0.31-0.4,0.55-0.52
		c0.24-0.12,0.5-0.19,0.79-0.19c0.71,0,1.18,0.26,1.4,0.77h0.03c0.14-0.24,0.33-0.43,0.59-0.57c0.26-0.14,0.55-0.21,0.88-0.21
		c0.52,0,0.9,0.13,1.16,0.4c0.26,0.26,0.38,0.69,0.38,1.27v2.97H23.36z"/>
	<path class="st2" d="M27.42,45.78c0.6,0,1.06,0.2,1.39,0.61c0.33,0.41,0.5,0.99,0.5,1.74c0,0.75-0.17,1.33-0.5,1.74
		c-0.33,0.41-0.8,0.62-1.39,0.62c-0.3,0-0.57-0.05-0.81-0.16c-0.25-0.11-0.45-0.28-0.62-0.5h-0.05l-0.15,0.59H25.3v-6.47h0.69v1.57
		c0,0.35-0.01,0.67-0.03,0.95h0.03C26.31,46.01,26.79,45.78,27.42,45.78z M27.32,46.36c-0.47,0-0.81,0.14-1.02,0.41
		c-0.21,0.27-0.31,0.73-0.31,1.37c0,0.64,0.11,1.1,0.32,1.37c0.21,0.28,0.56,0.41,1.03,0.41c0.42,0,0.74-0.15,0.95-0.46
		s0.31-0.75,0.31-1.33c0-0.59-0.1-1.04-0.31-1.33C28.08,46.5,27.76,46.36,27.32,46.36z"/>
	<path class="st2" d="M30.29,44.62c0-0.16,0.04-0.27,0.12-0.35c0.08-0.07,0.17-0.11,0.29-0.11c0.11,0,0.21,0.04,0.29,0.11
		c0.08,0.07,0.12,0.19,0.12,0.35c0,0.16-0.04,0.27-0.12,0.35c-0.08,0.08-0.18,0.11-0.29,0.11c-0.12,0-0.21-0.04-0.29-0.11
		C30.33,44.89,30.29,44.78,30.29,44.62z M31.04,50.41h-0.69v-4.56h0.69V50.41z"/>
	<path class="st2" d="M35.45,50.41v-2.95c0-0.37-0.08-0.65-0.25-0.83c-0.17-0.18-0.43-0.27-0.79-0.27c-0.48,0-0.83,0.13-1.05,0.39
		c-0.22,0.26-0.33,0.68-0.33,1.28v2.39h-0.69v-4.56h0.56L33,46.48h0.03c0.14-0.22,0.34-0.4,0.59-0.52c0.26-0.12,0.54-0.19,0.85-0.19
		c0.55,0,0.96,0.13,1.24,0.4c0.28,0.26,0.42,0.69,0.42,1.27v2.97H35.45z"/>
	<path class="st2" d="M41.11,45.86v0.44l-0.84,0.1c0.08,0.1,0.15,0.22,0.21,0.38c0.06,0.16,0.09,0.33,0.09,0.53
		c0,0.45-0.15,0.8-0.46,1.07c-0.31,0.27-0.72,0.4-1.26,0.4c-0.13,0-0.26-0.01-0.38-0.03c-0.29,0.16-0.44,0.35-0.44,0.59
		c0,0.12,0.05,0.22,0.15,0.28c0.1,0.06,0.28,0.09,0.53,0.09h0.81c0.49,0,0.87,0.1,1.14,0.31c0.26,0.21,0.4,0.51,0.4,0.91
		c0,0.5-0.2,0.89-0.61,1.15c-0.4,0.26-0.99,0.4-1.77,0.4c-0.59,0-1.06-0.11-1.38-0.33c-0.32-0.22-0.48-0.53-0.48-0.94
		c0-0.28,0.09-0.52,0.26-0.72c0.18-0.2,0.43-0.34,0.75-0.41c-0.12-0.05-0.21-0.13-0.29-0.25c-0.08-0.11-0.12-0.24-0.12-0.39
		c0-0.17,0.04-0.31,0.13-0.44c0.09-0.13,0.23-0.25,0.42-0.36c-0.24-0.1-0.43-0.26-0.58-0.5c-0.15-0.23-0.22-0.5-0.22-0.8
		c0-0.5,0.15-0.88,0.45-1.15c0.3-0.27,0.72-0.41,1.27-0.41c0.24,0,0.45,0.03,0.65,0.08H41.11z M37.48,51.18
		c0,0.25,0.1,0.43,0.31,0.56c0.21,0.13,0.51,0.19,0.89,0.19c0.58,0,1.01-0.09,1.29-0.26s0.42-0.41,0.42-0.7
		c0-0.25-0.08-0.42-0.23-0.51c-0.15-0.1-0.44-0.14-0.86-0.14h-0.83c-0.31,0-0.56,0.07-0.73,0.22S37.48,50.9,37.48,51.18z
		 M37.86,47.32c0,0.32,0.09,0.56,0.27,0.72c0.18,0.16,0.43,0.24,0.75,0.24c0.67,0,1.01-0.33,1.01-0.98c0-0.68-0.34-1.03-1.02-1.03
		c-0.32,0-0.57,0.09-0.75,0.26C37.94,46.71,37.86,46.97,37.86,47.32z"/>
	<path class="st2" d="M43.66,48.84c0-0.36,0.1-0.68,0.29-0.96c0.19-0.28,0.54-0.56,1.04-0.84c-0.24-0.26-0.4-0.46-0.48-0.6
		c-0.08-0.14-0.15-0.28-0.2-0.42c-0.05-0.15-0.07-0.3-0.07-0.46c0-0.42,0.14-0.74,0.41-0.97c0.27-0.23,0.65-0.35,1.13-0.35
		c0.45,0,0.8,0.12,1.06,0.35c0.26,0.23,0.39,0.55,0.39,0.97c0,0.3-0.09,0.57-0.28,0.82c-0.19,0.25-0.5,0.51-0.93,0.76l1.69,1.63
		c0.16-0.17,0.28-0.37,0.37-0.61c0.09-0.23,0.17-0.48,0.24-0.76H49c-0.19,0.79-0.47,1.39-0.85,1.8l1.24,1.21h-0.95l-0.77-0.74
		c-0.33,0.29-0.66,0.5-1,0.63s-0.71,0.19-1.13,0.19c-0.6,0-1.06-0.15-1.39-0.44C43.82,49.76,43.66,49.35,43.66,48.84z M45.55,49.88
		c0.67,0,1.22-0.21,1.66-0.64l-1.82-1.76c-0.31,0.19-0.53,0.34-0.65,0.47c-0.13,0.12-0.22,0.26-0.28,0.4
		c-0.06,0.14-0.09,0.3-0.09,0.48c0,0.32,0.11,0.58,0.32,0.77C44.91,49.78,45.2,49.88,45.55,49.88z M44.91,45.54
		c0,0.19,0.05,0.37,0.15,0.55c0.1,0.17,0.27,0.38,0.51,0.63c0.36-0.21,0.61-0.4,0.75-0.58c0.14-0.18,0.21-0.38,0.21-0.61
		c0-0.21-0.07-0.39-0.21-0.52c-0.14-0.13-0.33-0.2-0.57-0.2c-0.25,0-0.45,0.07-0.6,0.2C44.99,45.14,44.91,45.32,44.91,45.54z"/>
	<path class="st2" d="M56.73,50.41h-0.71v-2.86h-3.2v2.86h-0.71v-6.08h0.71v2.59h3.2v-2.59h0.71V50.41z"/>
	<path class="st2" d="M60.04,50.5c-0.67,0-1.2-0.2-1.59-0.62c-0.39-0.41-0.58-0.98-0.58-1.71c0-0.73,0.18-1.32,0.54-1.75
		c0.36-0.43,0.85-0.65,1.46-0.65c0.57,0,1.02,0.19,1.36,0.56c0.33,0.38,0.5,0.87,0.5,1.49v0.44h-3.14c0.01,0.53,0.15,0.94,0.4,1.22
		c0.26,0.28,0.62,0.42,1.08,0.42c0.49,0,0.98-0.1,1.45-0.31v0.62c-0.24,0.11-0.47,0.18-0.69,0.23C60.61,50.47,60.35,50.5,60.04,50.5
		z M59.86,46.35c-0.37,0-0.66,0.12-0.87,0.36s-0.35,0.57-0.39,0.99h2.38c0-0.43-0.1-0.77-0.29-1
		C60.49,46.47,60.22,46.35,59.86,46.35z"/>
	<path class="st2" d="M65.53,50.41l-0.14-0.65h-0.03c-0.23,0.29-0.45,0.48-0.68,0.58c-0.23,0.1-0.51,0.15-0.85,0.15
		c-0.45,0-0.8-0.12-1.06-0.35c-0.26-0.23-0.39-0.56-0.39-0.99c0-0.92,0.74-1.4,2.21-1.45l0.77-0.02V47.4c0-0.36-0.08-0.62-0.23-0.79
		c-0.15-0.17-0.4-0.26-0.74-0.26c-0.38,0-0.81,0.12-1.29,0.35l-0.21-0.53c0.22-0.12,0.47-0.22,0.74-0.29c0.27-0.07,0.53-0.1,0.8-0.1
		c0.54,0,0.94,0.12,1.21,0.36c0.26,0.24,0.39,0.63,0.39,1.16v3.11H65.53z M63.97,49.93c0.43,0,0.77-0.12,1.01-0.35
		c0.25-0.24,0.37-0.57,0.37-0.99v-0.41l-0.69,0.03c-0.55,0.02-0.94,0.1-1.19,0.26s-0.36,0.39-0.36,0.7c0,0.25,0.08,0.44,0.23,0.57
		C63.49,49.86,63.7,49.93,63.97,49.93z"/>
	<path class="st2" d="M68.76,49.93c0.12,0,0.24-0.01,0.35-0.03c0.11-0.02,0.2-0.04,0.27-0.06v0.53c-0.07,0.04-0.19,0.07-0.33,0.09
		c-0.15,0.02-0.28,0.03-0.39,0.03c-0.88,0-1.32-0.46-1.32-1.39v-2.71h-0.65v-0.33l0.65-0.29l0.29-0.97h0.4v1.06h1.32v0.54h-1.32
		v2.68c0,0.27,0.07,0.49,0.2,0.63C68.36,49.85,68.53,49.93,68.76,49.93z"/>
	<path class="st2" d="M70.07,44.62c0-0.16,0.04-0.27,0.12-0.35c0.08-0.07,0.17-0.11,0.29-0.11c0.11,0,0.21,0.04,0.29,0.11
		c0.08,0.07,0.12,0.19,0.12,0.35c0,0.16-0.04,0.27-0.12,0.35c-0.08,0.08-0.18,0.11-0.29,0.11c-0.12,0-0.21-0.04-0.29-0.11
		C70.1,44.89,70.07,44.78,70.07,44.62z M70.82,50.41h-0.69v-4.56h0.69V50.41z"/>
	<path class="st2" d="M75.23,50.41v-2.95c0-0.37-0.08-0.65-0.25-0.83c-0.17-0.18-0.43-0.27-0.79-0.27c-0.48,0-0.83,0.13-1.05,0.39
		c-0.22,0.26-0.33,0.68-0.33,1.28v2.39h-0.69v-4.56h0.56l0.11,0.62h0.03c0.14-0.22,0.34-0.4,0.59-0.52
		c0.26-0.12,0.54-0.19,0.85-0.19c0.55,0,0.96,0.13,1.24,0.4c0.28,0.26,0.42,0.69,0.42,1.27v2.97H75.23z"/>
	<path class="st2" d="M80.89,45.86v0.44l-0.84,0.1c0.08,0.1,0.15,0.22,0.21,0.38c0.06,0.16,0.09,0.33,0.09,0.53
		c0,0.45-0.15,0.8-0.46,1.07c-0.31,0.27-0.72,0.4-1.26,0.4c-0.13,0-0.26-0.01-0.38-0.03c-0.29,0.16-0.44,0.35-0.44,0.59
		c0,0.12,0.05,0.22,0.15,0.28c0.1,0.06,0.28,0.09,0.53,0.09h0.81c0.49,0,0.87,0.1,1.14,0.31c0.26,0.21,0.4,0.51,0.4,0.91
		c0,0.5-0.2,0.89-0.61,1.15c-0.4,0.26-0.99,0.4-1.77,0.4c-0.59,0-1.06-0.11-1.38-0.33c-0.32-0.22-0.48-0.53-0.48-0.94
		c0-0.28,0.09-0.52,0.26-0.72c0.18-0.2,0.43-0.34,0.75-0.41c-0.12-0.05-0.21-0.13-0.29-0.25c-0.08-0.11-0.12-0.24-0.12-0.39
		c0-0.17,0.04-0.31,0.13-0.44c0.09-0.13,0.23-0.25,0.42-0.36c-0.24-0.1-0.43-0.26-0.58-0.5c-0.15-0.23-0.22-0.5-0.22-0.8
		c0-0.5,0.15-0.88,0.45-1.15c0.3-0.27,0.72-0.41,1.27-0.41c0.24,0,0.45,0.03,0.65,0.08H80.89z M77.26,51.18
		c0,0.25,0.1,0.43,0.31,0.56c0.21,0.13,0.51,0.19,0.89,0.19c0.58,0,1.01-0.09,1.29-0.26s0.42-0.41,0.42-0.7
		c0-0.25-0.08-0.42-0.23-0.51c-0.15-0.1-0.44-0.14-0.86-0.14h-0.83c-0.31,0-0.56,0.07-0.73,0.22S77.26,50.9,77.26,51.18z
		 M77.63,47.32c0,0.32,0.09,0.56,0.27,0.72c0.18,0.16,0.43,0.24,0.75,0.24c0.67,0,1.01-0.33,1.01-0.98c0-0.68-0.34-1.03-1.02-1.03
		c-0.32,0-0.57,0.09-0.75,0.26C77.72,46.71,77.63,46.97,77.63,47.32z"/>
	<path class="st2" d="M83.31,48.08c0-0.73,0.11-1.42,0.32-2.06c0.21-0.64,0.52-1.2,0.93-1.68h0.67c-0.4,0.53-0.7,1.12-0.9,1.76
		c-0.2,0.64-0.3,1.3-0.3,1.98c0,0.66,0.1,1.31,0.31,1.95c0.2,0.63,0.5,1.21,0.89,1.74h-0.67c-0.41-0.47-0.72-1.02-0.93-1.65
		C83.41,49.48,83.31,48.8,83.31,48.08z"/>
	<path class="st2" d="M88.75,44.88c-0.67,0-1.19,0.22-1.58,0.67c-0.39,0.45-0.58,1.05-0.58,1.83c0,0.8,0.19,1.41,0.56,1.84
		c0.37,0.43,0.9,0.65,1.59,0.65c0.42,0,0.91-0.08,1.45-0.23v0.62c-0.42,0.16-0.94,0.24-1.56,0.24c-0.89,0-1.58-0.27-2.07-0.81
		c-0.49-0.54-0.73-1.32-0.73-2.32c0-0.63,0.12-1.18,0.35-1.65c0.23-0.47,0.57-0.83,1.01-1.09c0.44-0.26,0.96-0.38,1.56-0.38
		c0.64,0,1.19,0.12,1.67,0.35l-0.3,0.61C89.67,44.99,89.21,44.88,88.75,44.88z"/>
	<path class="st2" d="M95.18,48.13c0,0.74-0.19,1.32-0.56,1.74c-0.37,0.42-0.89,0.63-1.55,0.63c-0.41,0-0.77-0.1-1.08-0.29
		c-0.32-0.19-0.56-0.46-0.73-0.82c-0.17-0.36-0.26-0.78-0.26-1.26c0-0.74,0.19-1.32,0.56-1.74c0.37-0.41,0.89-0.62,1.55-0.62
		c0.64,0,1.14,0.21,1.52,0.64C94.99,46.83,95.18,47.41,95.18,48.13z M91.71,48.13c0,0.58,0.12,1.03,0.35,1.33
		c0.23,0.3,0.57,0.46,1.03,0.46c0.45,0,0.79-0.15,1.03-0.46c0.23-0.3,0.35-0.75,0.35-1.33c0-0.58-0.12-1.02-0.35-1.32
		c-0.23-0.3-0.58-0.45-1.04-0.45c-0.45,0-0.79,0.15-1.02,0.45C91.82,47.1,91.71,47.54,91.71,48.13z"/>
	<path class="st2" d="M99.34,50.41v-2.95c0-0.37-0.08-0.65-0.25-0.83c-0.17-0.18-0.43-0.27-0.79-0.27c-0.48,0-0.83,0.13-1.05,0.39
		c-0.22,0.26-0.33,0.68-0.33,1.28v2.39h-0.69v-4.56h0.56l0.11,0.62h0.03c0.14-0.22,0.34-0.4,0.59-0.52
		c0.26-0.12,0.54-0.19,0.85-0.19c0.55,0,0.96,0.13,1.24,0.4c0.28,0.26,0.42,0.69,0.42,1.27v2.97H99.34z"/>
	<path class="st2" d="M102.75,49.93c0.12,0,0.24-0.01,0.35-0.03c0.11-0.02,0.2-0.04,0.27-0.06v0.53c-0.07,0.04-0.19,0.07-0.33,0.09
		c-0.15,0.02-0.28,0.03-0.39,0.03c-0.88,0-1.32-0.46-1.32-1.39v-2.71h-0.65v-0.33l0.65-0.29l0.29-0.97h0.4v1.06h1.32v0.54h-1.32
		v2.68c0,0.27,0.07,0.49,0.2,0.63C102.34,49.85,102.52,49.93,102.75,49.93z"/>
	<path class="st2" d="M106.19,45.77c0.2,0,0.38,0.02,0.54,0.05l-0.1,0.64c-0.19-0.04-0.35-0.06-0.5-0.06
		c-0.37,0-0.68,0.15-0.95,0.45c-0.26,0.3-0.39,0.67-0.39,1.12v2.44h-0.69v-4.56h0.57l0.08,0.84h0.03c0.17-0.3,0.37-0.53,0.61-0.69
		C105.64,45.85,105.9,45.77,106.19,45.77z"/>
	<path class="st2" d="M110.22,50.41l-0.14-0.65h-0.03c-0.23,0.29-0.45,0.48-0.68,0.58c-0.23,0.1-0.51,0.15-0.85,0.15
		c-0.45,0-0.8-0.12-1.06-0.35c-0.26-0.23-0.39-0.56-0.39-0.99c0-0.92,0.74-1.4,2.21-1.45l0.77-0.02V47.4c0-0.36-0.08-0.62-0.23-0.79
		c-0.15-0.17-0.4-0.26-0.74-0.26c-0.38,0-0.81,0.12-1.29,0.35l-0.21-0.53c0.22-0.12,0.47-0.22,0.74-0.29c0.27-0.07,0.53-0.1,0.8-0.1
		c0.54,0,0.94,0.12,1.21,0.36c0.26,0.24,0.39,0.63,0.39,1.16v3.11H110.22z M108.66,49.93c0.43,0,0.77-0.12,1.01-0.35
		c0.25-0.24,0.37-0.57,0.37-0.99v-0.41l-0.69,0.03c-0.55,0.02-0.94,0.1-1.19,0.26s-0.36,0.39-0.36,0.7c0,0.25,0.08,0.44,0.23,0.57
		C108.18,49.86,108.39,49.93,108.66,49.93z"/>
	<path class="st2" d="M113.8,50.5c-0.66,0-1.17-0.2-1.53-0.61c-0.36-0.41-0.54-0.98-0.54-1.72c0-0.76,0.18-1.35,0.55-1.77
		c0.37-0.42,0.89-0.62,1.57-0.62c0.22,0,0.44,0.02,0.66,0.07c0.22,0.05,0.39,0.1,0.52,0.17l-0.21,0.59
		c-0.15-0.06-0.32-0.11-0.5-0.15c-0.18-0.04-0.34-0.06-0.48-0.06c-0.92,0-1.39,0.59-1.39,1.77c0,0.56,0.11,0.99,0.34,1.29
		c0.23,0.3,0.56,0.45,1,0.45c0.38,0,0.77-0.08,1.17-0.25v0.61C114.65,50.42,114.26,50.5,113.8,50.5z"/>
	<path class="st2" d="M117.33,49.93c0.12,0,0.24-0.01,0.35-0.03c0.11-0.02,0.2-0.04,0.27-0.06v0.53c-0.07,0.04-0.19,0.07-0.33,0.09
		c-0.15,0.02-0.28,0.03-0.39,0.03c-0.88,0-1.32-0.46-1.32-1.39v-2.71h-0.65v-0.33l0.65-0.29l0.29-0.97h0.4v1.06h1.32v0.54h-1.32
		v2.68c0,0.27,0.07,0.49,0.2,0.63C116.93,49.85,117.11,49.93,117.33,49.93z"/>
	<path class="st2" d="M122.63,48.13c0,0.74-0.19,1.32-0.56,1.74c-0.37,0.42-0.89,0.63-1.55,0.63c-0.41,0-0.77-0.1-1.08-0.29
		c-0.32-0.19-0.56-0.46-0.73-0.82c-0.17-0.36-0.26-0.78-0.26-1.26c0-0.74,0.19-1.32,0.56-1.74c0.37-0.41,0.89-0.62,1.55-0.62
		c0.64,0,1.14,0.21,1.52,0.64C122.44,46.83,122.63,47.41,122.63,48.13z M119.16,48.13c0,0.58,0.12,1.03,0.35,1.33
		c0.23,0.3,0.57,0.46,1.03,0.46c0.45,0,0.79-0.15,1.03-0.46c0.23-0.3,0.35-0.75,0.35-1.33c0-0.58-0.12-1.02-0.35-1.32
		c-0.23-0.3-0.58-0.45-1.04-0.45c-0.45,0-0.79,0.15-1.02,0.45C119.28,47.1,119.16,47.54,119.16,48.13z"/>
	<path class="st2" d="M125.75,45.77c0.2,0,0.38,0.02,0.54,0.05l-0.1,0.64c-0.19-0.04-0.35-0.06-0.5-0.06
		c-0.37,0-0.68,0.15-0.95,0.45c-0.26,0.3-0.39,0.67-0.39,1.12v2.44h-0.69v-4.56h0.57l0.08,0.84h0.03c0.17-0.3,0.37-0.53,0.61-0.69
		C125.2,45.85,125.46,45.77,125.75,45.77z"/>
	<path class="st2" d="M129.92,49.17c0,0.42-0.16,0.75-0.47,0.98c-0.32,0.23-0.76,0.34-1.33,0.34c-0.6,0-1.07-0.1-1.41-0.29v-0.64
		c0.22,0.11,0.45,0.2,0.7,0.26c0.25,0.06,0.49,0.1,0.73,0.1c0.36,0,0.64-0.06,0.83-0.17c0.19-0.11,0.29-0.29,0.29-0.53
		c0-0.18-0.08-0.33-0.23-0.46c-0.15-0.13-0.45-0.27-0.9-0.45c-0.42-0.16-0.73-0.3-0.9-0.41c-0.18-0.12-0.31-0.25-0.4-0.4
		c-0.09-0.15-0.13-0.33-0.13-0.54c0-0.37,0.15-0.66,0.45-0.88c0.3-0.22,0.72-0.32,1.24-0.32c0.49,0,0.97,0.1,1.44,0.3l-0.25,0.56
		c-0.46-0.19-0.87-0.28-1.24-0.28c-0.33,0-0.57,0.05-0.74,0.15c-0.17,0.1-0.25,0.24-0.25,0.42c0,0.12,0.03,0.23,0.09,0.31
		c0.06,0.09,0.16,0.17,0.3,0.24c0.14,0.08,0.4,0.19,0.8,0.34c0.54,0.2,0.91,0.4,1.1,0.59C129.82,48.62,129.92,48.87,129.92,49.17z"
		/>
	<path class="st2" d="M132.31,48.08c0,0.73-0.11,1.41-0.32,2.04s-0.53,1.18-0.93,1.64h-0.66c0.39-0.52,0.68-1.1,0.89-1.74
		c0.2-0.64,0.31-1.29,0.31-1.95c0-0.68-0.1-1.33-0.3-1.98c-0.2-0.64-0.5-1.23-0.9-1.76h0.67c0.41,0.48,0.72,1.05,0.93,1.69
		C132.21,46.67,132.31,47.35,132.31,48.08z"/>
	<path class="st2" d="M135.36,50.41v-6.08h0.71v5.44h2.68v0.64H135.36z"/>
	<path class="st2" d="M141.48,50.41h-0.71v-5.45h-1.92v-0.63h4.56v0.63h-1.92V50.41z"/>
	<path class="st2" d="M149,47.32c0,1-0.27,1.77-0.82,2.3s-1.33,0.8-2.35,0.8h-1.68v-6.08h1.86c0.94,0,1.68,0.26,2.2,0.79
		C148.74,45.64,149,46.38,149,47.32z M148.25,47.34c0-0.79-0.2-1.39-0.6-1.79c-0.4-0.4-0.99-0.6-1.77-0.6h-1.03v4.86h0.86
		c0.84,0,1.48-0.21,1.9-0.62C148.04,48.77,148.25,48.15,148.25,47.34z"/>
</g>
</svg>
