<?xml version="1.0" encoding="utf-8"?>
<!-- Generator: Adobe Illustrator 23.1.1, SVG Export Plug-In . SVG Version: 6.00 Build 0)  -->
<svg version="1.1" id="Layer_1" xmlns="http://www.w3.org/2000/svg" xmlns:xlink="http://www.w3.org/1999/xlink" x="0px" y="0px"
	 viewBox="0 0 60 60" style="enable-background:new 0 0 60 60;" xml:space="preserve">
<style type="text/css">
	.st0{fill:#A92029;}
	.st1{fill:#CD2A35;}
	.st2{fill:#FFFFFF;}
</style>
<path class="st1" d="M46.96,35.67l1.5,9.33c0.03,0.18-0.09,0.34-0.27,0.37c-0.07,0.01-0.14,0-0.2-0.03l-10.14-5.3
	c-0.61,0.14-1.24,0.26-1.88,0.35c0.84-1.53,1.29-3.24,1.29-4.98c0-6.98-7.18-12.66-16-12.66c-3.09-0.02-6.13,0.71-8.87,2.13
	c0.59-7.85,9.22-14.08,19.79-14.08C43.12,10.79,52,17.48,52,25.73C52,29.55,50.09,33.03,46.96,35.67z M7.71,35.4
	c0-5.64,6.06-10.2,13.54-10.2S34.8,29.77,34.8,35.4s-6.06,10.2-13.54,10.2c-1.31,0-2.62-0.14-3.9-0.43l-6.6,3.96
	c-0.1,0.06-0.24,0.03-0.3-0.08c-0.02-0.04-0.03-0.09-0.03-0.14l0.68-6.78C8.99,40.35,7.71,37.99,7.71,35.4z M25.93,35.4
	c0,1.09,0.88,1.97,1.97,1.97c1.09,0,1.97-0.88,1.97-1.97c0-1.09-0.88-1.97-1.97-1.97C26.81,33.43,25.93,34.32,25.93,35.4z
	 M19.29,35.4c0,1.09,0.88,1.97,1.97,1.97s1.97-0.88,1.97-1.97c0-1.09-0.88-1.97-1.97-1.97S19.29,34.32,19.29,35.4L19.29,35.4z
	 M12.64,35.4c0,1.09,0.88,1.97,1.97,1.97s1.97-0.88,1.97-1.97c0-1.09-0.88-1.97-1.97-1.97S12.64,34.32,12.64,35.4L12.64,35.4z"/>
</svg>
