<?xml version="1.0" encoding="utf-8"?>
<!-- Generator: Adobe Illustrator 23.1.1, SVG Export Plug-In . SVG Version: 6.00 Build 0)  -->
<svg version="1.1" id="Layer_1" xmlns="http://www.w3.org/2000/svg" xmlns:xlink="http://www.w3.org/1999/xlink" x="0px" y="0px"
	 viewBox="0 0 108 60" style="enable-background:new 0 0 108 60;" xml:space="preserve">
<style type="text/css">
	.st0{fill:#A92029;}
	.st1{fill:#CD2A35;}
	.st2{fill:#FFFFFF;}
</style>
<g>
	<g>
		<path class="st0" d="M7.34,25.12c3.05,4.13,5.99,8.1,9.03,12.21c3.18-4.39,6.09-8.8,9.09-13.14c2.98-4.33,5.95-8.66,8.93-12.98
			c0.06,0.02,0.12,0.03,0.18,0.05c0,3.11,0,6.21,0,9.43c22.74,0,45.38,0,68.04,0c-0.18,0.7-11.04,15.94-12.46,17.52
			c-22.4,0-44.87,0-67.38,0c-0.68,0.99-1.35,1.94-2.01,2.9c-1.04,1.51-2.07,3.02-3.11,4.53c-0.09,0.13-0.17,0.25-0.26,0.37
			c-0.61,0.77-1.37,0.78-1.98,0.01c-0.59-0.74-1.14-1.5-1.7-2.26c-1.3-1.76-2.59-3.52-3.89-5.28c-0.77-1.04-1.56-2.07-2.31-3.13
			c-0.15-0.21-0.25-0.51-0.25-0.77c-0.02-3-0.01-6.01-0.01-9.01C7.25,25.49,7.28,25.4,7.34,25.12z M33.91,21.95
			c-3.4,4.96-6.8,9.91-10.22,14.89c0.64,0.22,64.83,0.29,65.99,0.09c3.54-4.91,7.13-9.88,10.81-14.98
			C78.19,21.95,56.11,21.95,33.91,21.95z"/>
		<path class="st0" d="M39.85,28.04c-0.53,0-1,0-1.47,0c-0.5-0.86-0.92-1.1-1.68-0.95c-0.37,0.07-0.7,0.2-0.73,0.64
			c-0.02,0.42,0.29,0.57,0.62,0.66c0.54,0.15,1.09,0.25,1.62,0.42c0.38,0.12,0.78,0.27,1.1,0.5c1.27,0.94,1.04,2.9-0.44,3.55
			c-1.14,0.51-2.33,0.49-3.48-0.02c-0.87-0.39-1.33-1.22-1.23-2.19c0.46,0,0.93,0,1.4,0c0.6,1.1,1.1,1.37,2.15,1.16
			c0.38-0.08,0.69-0.26,0.75-0.66c0.06-0.4-0.23-0.63-0.54-0.74c-0.74-0.26-1.5-0.46-2.25-0.7c-0.53-0.17-0.93-0.48-1.17-1.01
			c-0.41-0.92-0.11-2.02,0.76-2.52c1.23-0.7,2.48-0.65,3.7,0.02C39.55,26.53,39.82,27.11,39.85,28.04z"/>
		<path class="st0" d="M42.84,25.91c0.6,0,1.13,0,1.72,0c0.87,2.33,1.74,4.64,2.65,7.08c-0.64,0-1.15,0-1.73,0
			c-0.19-0.47-0.38-0.96-0.59-1.49c-0.79,0-1.57,0-2.42,0c-0.21,0.48-0.43,0.98-0.67,1.51c-0.51,0-1.01,0-1.65,0
			C41.06,30.61,41.94,28.29,42.84,25.91z M43.68,27.91c-0.3,0.83-0.54,1.49-0.8,2.22c0.56,0,1.03,0,1.58,0
			C44.2,29.4,43.97,28.74,43.68,27.91z"/>
		<path class="st0" d="M63.77,33.02c-0.25,0-0.45,0-0.73,0c-0.73-1.83-1.47-3.68-2.21-5.53c-0.04,0.01-0.08,0.02-0.11,0.03
			c0,1.8,0,3.59,0,5.46c-0.25,0.03-0.46,0.05-0.74,0.08c0-2.4,0-4.73,0-7.14c0.32-0.01,0.63-0.03,1.04-0.05
			c0.78,1.96,1.55,3.91,2.39,6c0.83-2.08,1.6-4,2.37-5.95c0.37,0,0.69,0,1.07,0c0,2.35,0,4.68,0,7.08
			c-0.23,0.01-0.44,0.03-0.74,0.05c0-1.84,0-3.61,0-5.38c-0.06-0.01-0.11-0.02-0.17-0.03C65.22,29.43,64.5,31.22,63.77,33.02z"/>
		<path class="st0" d="M47.73,25.91c1.68,0,3.28,0,4.95,0c0,0.44,0,0.85,0,1.38c-1.06,0-2.14,0-3.26,0c0,0.54,0,0.95,0,1.46
			c0.94,0,1.84,0,2.84,0c0.03,0.47,0.05,0.86,0.08,1.37c-1,0-1.92,0-2.96,0c0,1.02,0,1.91,0,2.87c-0.61,0-1.09,0-1.64,0
			C47.73,30.64,47.73,28.32,47.73,25.91z"/>
		<path class="st0" d="M78.92,29.55c1.21,0.9,0.57,2.3,1.12,3.46c-0.33,0.02-0.55,0.03-0.83,0.04c-0.07-0.28-0.14-0.51-0.17-0.75
			c-0.04-0.33-0.03-0.66-0.07-0.99c-0.12-0.85-0.4-1.49-1.59-1.41c-0.68,0.04-1.36,0.01-2.18,0.01c0,1.07,0,2.06,0,3.09
			c-0.32,0-0.51,0-0.75,0c0-2.37,0-4.7,0-7.07c1.31,0,2.59-0.13,3.83,0.03c1.58,0.21,2.12,1.99,1.06,3.2
			C79.22,29.3,79.08,29.41,78.92,29.55z M75.19,29.21c0.88,0,1.71,0.01,2.55-0.01c0.2,0,0.4-0.08,0.58-0.17
			c0.54-0.25,0.78-0.69,0.73-1.3c-0.05-0.61-0.33-1.04-0.96-1.1c-0.95-0.08-1.9-0.02-2.89-0.02C75.19,27.5,75.19,28.32,75.19,29.21z
			"/>
		<path class="st0" d="M70.22,25.91c0.34,0,0.57,0,0.88,0c0.91,2.32,1.83,4.65,2.79,7.1c-0.35,0.02-0.58,0.03-0.86,0.04
			c-0.29-0.73-0.56-1.41-0.85-2.14c-1.01,0-2.01,0-3.11,0c-0.27,0.64-0.56,1.34-0.87,2.09c-0.23,0-0.46,0-0.82,0
			C68.35,30.59,69.28,28.27,70.22,25.91z M71.85,30.09c-0.4-1.07-0.77-2.07-1.14-3.06c-0.5,1.04-1.04,1.97-1.3,3.06
			C70.27,30.09,71.01,30.09,71.85,30.09z"/>
	</g>
	<path class="st0" d="M83.65,28.85c1.04-0.97,2.03-1.89,3.08-2.88c-0.93-0.14-0.94-0.15-1.47,0.33c-0.96,0.87-1.9,1.76-2.85,2.65
		c-0.17,0.16-0.36,0.31-0.54,0.47c-0.05-0.02-0.11-0.04-0.16-0.07c0-1.12,0-2.3,0-3.43h-0.7c0,2.31,0,4.7,0,7.08h0.75
		c0.01-0.42-0.01-2.46-0.01-2.46s1.18-1,1.3-1.07c0.95,1.18,1.91,2.36,2.86,3.53h1.02C85.78,31.55,84.73,30.21,83.65,28.85z"/>
	<path class="st0" d="M58.97,33c0-0.39,0-0.94,0-1.37c-1.27,0-2.48,0-3.69,0c0-0.59,0-1.08,0-1.65c1.14,0,2.19,0,3.26,0
		c0-0.48,0-0.87,0-1.35c-1.12,0-2.18,0-3.27,0c0-0.48,0-0.87,0-1.36c1.24,0,2.42,0,3.61,0c0-0.5,0-0.9,0-1.34c-1.77,0-3.49,0-5.31,0
		c0,2.32,0,4.81,0,7.07H58.97z"/>
</g>
</svg>
