<?xml version="1.0" encoding="utf-8"?>
<!-- Generator: Adobe Illustrator 23.1.1, SVG Export Plug-In . SVG Version: 6.00 Build 0)  -->
<svg version="1.1" id="Layer_1" xmlns="http://www.w3.org/2000/svg" xmlns:xlink="http://www.w3.org/1999/xlink" x="0px" y="0px"
	 viewBox="0 0 155 60" style="enable-background:new 0 0 155 60;" xml:space="preserve">
<style type="text/css">
	.st0{fill:#A92029;}
	.st1{fill:#CD2A35;}
	.st2{fill:#FFFFFF;}
</style>
<g>
	<path class="st2" d="M8.91,48.83c-1.11,0-2.09-0.12-2.91-0.35v-4.1c0.85,0.21,1.62,0.32,2.32,0.32c1.08,0,1.85-0.34,2.32-1.01
		c0.47-0.67,0.7-1.73,0.7-3.16v-21.8h4.93V40.5c0,2.72-0.62,4.78-1.86,6.21C13.17,48.12,11.34,48.83,8.91,48.83z"/>
	<path class="st2" d="M35.72,41.99l-1.69-5.54h-8.48l-1.69,5.54h-5.31l8.21-23.36h6.03l8.24,23.36H35.72z M32.86,32.32
		c-1.56-5.02-2.44-7.85-2.63-8.51c-0.2-0.66-0.34-1.18-0.42-1.56c-0.35,1.36-1.35,4.72-3,10.07H32.86z"/>
	<path class="st2" d="M52.54,22.5c-1.86,0-3.29,0.7-4.31,2.09c-1.02,1.39-1.53,3.34-1.53,5.83c0,5.19,1.95,7.78,5.84,7.78
		c1.63,0,3.61-0.41,5.93-1.23v4.14c-1.91,0.8-4.04,1.19-6.4,1.19c-3.38,0-5.97-1.03-7.77-3.08c-1.79-2.05-2.69-5-2.69-8.84
		c0-2.42,0.44-4.54,1.32-6.36c0.88-1.82,2.15-3.21,3.79-4.19c1.65-0.97,3.58-1.46,5.8-1.46c2.26,0,4.53,0.55,6.81,1.64l-1.59,4.01
		c-0.87-0.41-1.74-0.77-2.62-1.08C54.25,22.65,53.39,22.5,52.54,22.5z"/>
	<path class="st2" d="M81.48,41.99h-5.6l-6.09-9.8l-2.09,1.5v8.31h-4.93V18.73h4.93v10.64l1.94-2.74l6.3-7.91h5.47L73.3,29.02
		L81.48,41.99z"/>
	<path class="st2" d="M98.14,35.53c0,2.1-0.76,3.75-2.27,4.96c-1.51,1.21-3.62,1.81-6.31,1.81c-2.48,0-4.68-0.47-6.59-1.4v-4.58
		c1.57,0.7,2.9,1.19,3.99,1.48c1.09,0.29,2.08,0.43,2.98,0.43c1.08,0,1.91-0.21,2.49-0.62c0.58-0.41,0.87-1.03,0.87-1.84
		c0-0.46-0.13-0.86-0.38-1.22c-0.25-0.36-0.63-0.7-1.12-1.03c-0.49-0.33-1.5-0.85-3.02-1.58c-1.42-0.67-2.49-1.31-3.2-1.93
		c-0.71-0.61-1.28-1.33-1.7-2.15c-0.42-0.82-0.64-1.77-0.64-2.86c0-2.06,0.7-3.68,2.09-4.85c1.39-1.18,3.32-1.77,5.78-1.77
		c1.21,0,2.36,0.14,3.46,0.43c1.1,0.29,2.25,0.69,3.45,1.21l-1.59,3.83c-1.24-0.51-2.27-0.86-3.08-1.07c-0.81-0.2-1.61-0.3-2.4-0.3
		c-0.93,0-1.65,0.22-2.15,0.65c-0.5,0.43-0.75,1-0.75,1.7c0,0.44,0.1,0.81,0.3,1.14c0.2,0.32,0.52,0.64,0.96,0.94
		c0.44,0.3,1.48,0.85,3.13,1.63c2.17,1.04,3.66,2.08,4.47,3.13C97.74,32.74,98.14,34.02,98.14,35.53z"/>
	<path class="st2" d="M122.82,30.33c0,3.85-0.96,6.81-2.86,8.88s-4.65,3.1-8.21,3.1s-6.3-1.03-8.21-3.1
		c-1.91-2.07-2.86-5.04-2.86-8.91c0-3.87,0.96-6.83,2.87-8.87c1.91-2.04,4.66-3.06,8.23-3.06c3.58,0,6.31,1.03,8.2,3.09
		S122.82,26.47,122.82,30.33z M105.84,30.33c0,2.6,0.49,4.56,1.48,5.87s2.46,1.97,4.42,1.97c3.94,0,5.9-2.61,5.9-7.84
		c0-5.24-1.96-7.86-5.87-7.86c-1.96,0-3.44,0.66-4.44,1.98C106.34,25.77,105.84,27.73,105.84,30.33z"/>
	<path class="st2" d="M146.32,41.99h-6.27l-10.12-17.6h-0.14c0.2,3.11,0.3,5.33,0.3,6.65v10.95h-4.41V18.73h6.22l10.11,17.42h0.11
		c-0.16-3.02-0.24-5.16-0.24-6.41V18.73h4.44V41.99z"/>
</g>
</svg>
