<?xml version="1.0" encoding="utf-8"?>
<!-- Generator: Adobe Illustrator 23.1.1, SVG Export Plug-In . SVG Version: 6.00 Build 0)  -->
<svg version="1.1" id="Layer_1" xmlns="http://www.w3.org/2000/svg" xmlns:xlink="http://www.w3.org/1999/xlink" x="0px" y="0px"
	 viewBox="0 0 12.39 12.06" style="enable-background:new 0 0 12.39 12.06;" xml:space="preserve">
<style type="text/css">
	.st0{fill:#f7c412;}
</style>
<g>
	<g>
		<g>
			<path class="st0" d="M11.87,6.19C9.98,8.08,8.09,9.97,6.2,11.86C4.31,9.97,2.42,8.07,0.52,6.17C2.4,4.28,4.29,2.4,6.18,0.51
				C8.08,2.4,9.97,4.3,11.87,6.19z"/>
		</g>
	</g>
	<g>
		<path d="M6.17,7.64C6.46,7.63,6.7,7.41,6.7,7.11c0-0.4,0-0.8,0-1.21c0-0.64,0-1.29,0-1.93c0-0.15,0-0.29,0-0.44
			C6.7,3.26,6.45,3,6.17,3.01C5.88,3.02,5.64,3.24,5.64,3.54c0,0.4,0,0.8,0,1.21c0,0.64,0,1.29,0,1.93c0,0.15,0,0.29,0,0.44
			C5.64,7.39,5.89,7.65,6.17,7.64z"/>
		<path d="M6.54,8.35C6.5,8.3,6.44,8.27,6.37,8.24C6.31,8.21,6.24,8.2,6.17,8.2C6.13,8.21,6.08,8.21,6.03,8.22
			C5.94,8.24,5.86,8.29,5.8,8.35C5.77,8.39,5.74,8.42,5.72,8.46C5.67,8.54,5.64,8.63,5.64,8.73c0,0.01,0,0.03,0,0.04
			c0,0.07,0.01,0.14,0.04,0.2C5.71,9.04,5.75,9.09,5.8,9.14c0.05,0.05,0.1,0.09,0.17,0.11C6.03,9.28,6.1,9.3,6.17,9.3
			c0.05-0.01,0.09-0.01,0.14-0.02C6.4,9.25,6.48,9.21,6.54,9.14C6.57,9.11,6.6,9.07,6.63,9.03C6.67,8.95,6.7,8.86,6.7,8.77
			c0-0.01,0-0.03,0-0.04c0-0.07-0.01-0.14-0.04-0.2C6.63,8.46,6.59,8.4,6.54,8.35z"/>
	</g>
</g>
</svg>
