<?xml version="1.0" encoding="utf-8"?>
<!-- Generator: Adobe Illustrator 23.1.1, SVG Export Plug-In . SVG Version: 6.00 Build 0)  -->
<svg version="1.1" id="Layer_1" xmlns="http://www.w3.org/2000/svg" xmlns:xlink="http://www.w3.org/1999/xlink" x="0px" y="0px"
	 viewBox="0 0 4.34 12.06" style="enable-background:new 0 0 4.34 12.06;" xml:space="preserve">
<style type="text/css">
	.st0{fill:#FFFFFF;}
</style>
<g>
	<g>
		<g>
			<path d="M2.25,8.6c0.49-0.02,0.91-0.4,0.91-0.91c0-0.69,0-1.39,0-2.08c0-1.11,0-2.22,0-3.34c0-0.25,0-0.51,0-0.76
				c0-0.48-0.42-0.93-0.91-0.91C1.76,0.62,1.34,1,1.34,1.51c0,0.69,0,1.39,0,2.08c0,1.11,0,2.22,0,3.34c0,0.25,0,0.51,0,0.76
				C1.34,8.17,1.76,8.62,2.25,8.6z"/>
			<path d="M2.9,9.83C2.82,9.74,2.72,9.68,2.61,9.64C2.5,9.59,2.38,9.56,2.26,9.57C2.18,9.58,2.09,9.59,2.02,9.6
				c-0.15,0.04-0.29,0.12-0.4,0.23c-0.05,0.06-0.1,0.12-0.14,0.18c-0.08,0.14-0.13,0.3-0.13,0.46c0,0.03,0,0.05,0,0.08
				c0,0.13,0.02,0.24,0.08,0.35c0.04,0.11,0.1,0.21,0.19,0.29c0.08,0.09,0.18,0.15,0.29,0.19c0.11,0.06,0.23,0.08,0.35,0.08
				c0.08-0.01,0.16-0.02,0.24-0.03c0.15-0.04,0.29-0.12,0.4-0.23c0.05-0.06,0.1-0.12,0.14-0.18c0.08-0.14,0.12-0.3,0.13-0.46
				c0-0.03,0-0.05,0-0.08c0-0.13-0.02-0.24-0.08-0.35C3.05,10.01,2.99,9.92,2.9,9.83z"/>
		</g>
	</g>
</g>
</svg>
